<svg width="40" height="40" viewBox="0 0 40 40" fill="none" xmlns="http://www.w3.org/2000/svg">
<g clip-path="url(#clip0_2_195)">
<path d="M39.9482 24.3013C39.5461 20.9448 37.55 18.4304 34.9081 16.5353C35.5674 15.365 36.154 14.1705 36.6544 12.9584C38.7324 12.8662 40.2052 9.91628 38.8252 8.17474C38.3318 7.5521 37.3966 7.17688 36.5323 7.18507C36.5018 7.16295 36.4661 7.14554 36.4211 7.1394C36.1855 7.10683 35.9627 7.11277 35.7519 7.14636C33.345 3.97971 29.8948 4.1237 26.5938 5.50722C25.6484 3.36609 24.1469 1.31937 22.0164 1.00661C22.0076 0.881267 21.931 0.764318 21.7657 0.722126C19.2942 0.0878134 17.5424 1.11742 16.2998 2.78584C16.0182 2.77519 15.7302 2.8053 15.4509 2.87371C14.8118 2.82435 14.1347 2.97898 13.6729 3.26614C12.4835 4.00531 12.6721 5.69279 13.5381 6.58414C13.7542 6.80678 14.0139 6.98189 14.2978 7.11543C14.0057 8.09711 13.7689 9.09927 13.5807 10.1156C12.3227 10.0197 11.0725 9.98285 9.84733 10.0275C6.04841 10.1657 3.51915 12.0748 2.19686 15.5784C2.17249 15.6429 2.15262 15.7091 2.13153 15.7748C0.956707 16.0001 0.0989414 17.2413 0.00595532 18.4778C-0.105055 19.9524 1.34033 20.9724 2.67203 20.9673C3.02022 20.9659 3.36206 20.8968 3.68341 20.775C4.83816 22.2853 6.32287 23.4372 8.00215 24.3424C7.48929 25.6801 7.14295 27.0667 7.03296 28.4805C6.79476 31.5415 7.76395 34.6309 11.0928 35.3068C12.5671 35.606 14.0686 35.3451 15.5219 34.7913C15.9236 35.6624 16.3969 36.4796 16.9688 37.2077C18.0907 38.6369 20.2147 39.7314 22.0578 39.4107C23.0255 39.2421 23.8092 38.7381 24.4468 38.0659C24.6024 38.1701 24.7677 38.2625 24.9549 38.3262C26.0249 38.6918 27.2234 38.2887 27.9548 37.4514C28.794 36.4913 28.6293 35.2505 27.8602 34.3112C27.5516 33.9343 27.1696 33.6544 26.755 33.5032C27.1538 32.2022 27.4448 30.8625 27.6583 29.5036C29.0729 29.7209 30.564 29.8854 32.0018 29.9259C32.1454 30.4177 32.4294 30.8631 32.8778 31.1796C34.6492 32.4298 36.9866 31.0864 37.3343 29.1671C39.1531 28.3761 40.2583 26.8887 39.9482 24.3013ZM26.0982 7.49762C26.6698 9.20987 26.9279 11.0184 27.0713 12.8214C25.8969 12.4462 24.7497 12.1326 23.6846 11.8712C22.5901 11.6025 21.4655 11.3432 20.3238 11.1077C22.0455 9.57526 23.8981 8.11903 25.9405 7.04559C25.9966 7.20146 26.0501 7.35363 26.0982 7.49762ZM16.9102 4.12656C17.284 4.39835 17.3626 4.96754 17.2199 5.43165C17.2702 4.99191 17.1533 4.51879 16.9042 4.12779C16.9063 4.12759 16.9083 4.12677 16.9102 4.12656ZM15.4423 7.40955C15.9596 7.45379 16.4842 7.39542 16.9413 7.22829C18.2304 6.75701 18.6702 5.46196 18.288 4.20808C18.1327 3.6985 17.8261 3.337 17.44 3.10515C18.3011 2.01103 19.4106 1.28414 20.843 1.31978C20.716 1.65567 20.885 2.10954 21.354 2.10975C23.3606 2.11077 24.7044 4.14418 25.5216 6.00083C23.7727 6.87662 22.1041 8.04345 20.7027 9.18284C20.0568 9.70778 19.422 10.2528 18.7957 10.8109C17.4757 10.569 16.1409 10.3679 14.8092 10.227C14.9519 9.40137 15.1551 8.41724 15.4423 7.40955ZM14.6306 11.3797C15.6442 11.4993 16.6595 11.6588 17.6674 11.842C16.4842 12.9492 15.3368 14.1013 14.2291 15.2755C14.3109 13.9659 14.4458 12.6651 14.6306 11.3797ZM4.67124 20.1626C5.07063 19.7931 5.36966 19.3181 5.50115 18.7809C5.79649 17.5743 5.10954 16.1961 3.85095 15.9555C3.68239 15.9231 3.51239 15.912 3.3428 15.9155C3.31925 15.9014 3.3 15.8848 3.27112 15.8741C3.19288 15.8455 3.11628 15.8264 3.03927 15.807C3.48331 14.7638 4.3294 13.7207 4.80006 13.1552C6.15451 11.5276 8.42755 11.2238 10.4175 11.1644C11.398 11.1351 12.3922 11.171 13.3914 11.2533C13.1264 13.0278 12.9931 14.8355 12.9601 16.6438C12.9585 16.6455 12.9566 16.6473 12.955 16.6492C11.2313 18.5484 9.60216 20.7846 8.48264 23.2106C7.02231 22.4248 5.71702 21.4373 4.67124 20.1626ZM13.3701 25.1037C12.0542 24.7312 10.7655 24.291 9.55587 23.7401C10.4966 21.799 11.7677 19.9928 12.9574 18.5271C12.9865 20.2977 13.0947 22.0559 13.2464 23.7681C13.2845 24.2011 13.3259 24.649 13.3701 25.1037ZM8.28684 30.8265C7.87803 28.8768 8.268 26.8246 9.05653 24.8655C10.4612 25.515 11.9694 26.025 13.5127 26.4514C13.7822 28.8189 14.1978 31.3393 15.0273 33.5944C11.8406 34.8843 9.09012 34.6557 8.28684 30.8265ZM15.1201 28.7591C14.9923 28.1055 14.8813 27.4448 14.7778 26.7818C17.0769 27.353 19.4054 27.7829 21.5314 28.2638C21.8935 28.3458 22.3351 28.4486 22.8369 28.562C20.8307 30.2139 18.451 31.9448 16.1894 33.0684C15.7126 31.6617 15.3986 30.1838 15.1201 28.7591ZM26.0263 31.6216C25.9065 32.1715 25.7658 32.7954 25.5849 33.4364C25.4612 33.4678 25.3379 33.5126 25.2154 33.5704C24.1825 33.3232 23.4731 34.5367 23.3586 35.4381C23.281 36.0497 23.3963 36.6912 23.6875 37.2263C23.3219 37.6057 22.9031 37.916 22.4142 38.1161C20.3535 38.9585 18.1813 37.1616 17.2389 35.4774C17.0253 35.0956 16.8389 34.6977 16.6646 34.2938C18.5835 33.3625 20.3789 32.0265 21.8632 30.9356C22.7259 30.3015 23.5828 29.6238 24.4281 28.91C25.06 29.0423 25.7414 29.1767 26.455 29.3031C26.3343 30.0795 26.1938 30.8531 26.0263 31.6216ZM26.6354 28.0314C26.2975 27.9746 25.9642 27.9161 25.6388 27.856C26.0214 27.5117 26.4015 27.1615 26.7769 26.8035C26.7343 27.2133 26.6874 27.6228 26.6354 28.0314ZM27.0479 23.233C27.0209 23.7632 26.9873 24.2933 26.9496 24.8233C26.3108 25.4806 25.2869 26.4606 24.0431 27.5425C22.545 27.2316 21.3211 26.9342 20.6335 26.7779C18.7275 26.3447 16.6441 25.95 14.5843 25.4286C14.2293 22.6957 14.0768 19.9082 14.1487 17.1387C15.7255 15.3791 17.4691 13.7303 19.1965 12.1359C20.2077 12.3397 21.2066 12.5568 22.1836 12.7689C23.7807 13.1157 25.4772 13.5403 27.1559 14.091C27.1602 14.1693 27.1655 14.2477 27.1694 14.3257C27.3236 17.287 27.1987 20.2724 27.0479 23.233ZM27.6103 8.61386C27.4715 7.98487 27.2699 7.26761 27.0035 6.53069C27.1946 6.4461 27.3873 6.36478 27.5819 6.28736C30.361 5.18321 32.7991 5.73293 34.7692 7.58446C34.2425 8.00884 33.8971 8.6794 33.7994 9.42349C33.6174 10.8087 34.259 12.1506 35.5482 12.7241C35.0619 13.8516 34.3557 14.9893 33.8259 15.8125C32.0946 14.7389 30.1636 13.893 28.2573 13.2199C28.1443 11.6744 27.9462 10.1365 27.6103 8.61386ZM28.3342 14.5C30.0282 15.1247 31.6733 15.8948 33.1481 16.8601C31.6677 19.1915 30.0392 21.3743 28.2174 23.4386C28.2635 22.4256 28.295 21.4185 28.3253 20.4264C28.3852 18.4526 28.4204 16.4718 28.3342 14.5ZM37.2078 27.7608C36.8049 26.824 35.645 26.3851 34.6439 26.5401C33.186 26.0795 32.1417 27.2604 31.9285 28.6038C30.5984 28.5641 29.196 28.4176 27.8379 28.2202C27.9497 27.3149 28.0351 26.4051 28.099 25.4945C30.4229 23.1086 32.54 20.4581 34.2547 17.6495C36.1749 19.1416 37.7012 21.04 38.4928 23.492C39.1994 25.6803 38.5761 27.0067 37.2078 27.7608Z" fill="#BAB0FF"/>
</g>
<defs>
<clipPath id="clip0_2_195">
<rect width="40" height="40" fill="white"/>
</clipPath>
</defs>
</svg>
