<?xml version="1.0" encoding="UTF-8"?> <svg xmlns="http://www.w3.org/2000/svg" width="36" height="36" viewBox="0 0 36 36" fill="none"> <path d="M3.46422 34.6415C5.43403 34.7774 26.7623 34.3698 26.6944 34.3698C26.8982 34.3698 27.102 34.3698 27.3057 34.3019C28.1887 34.0981 28.8001 33.283 28.868 32.4C28.9359 31.9246 28.5963 22.7547 28.5284 21.7359C29.5472 21.1246 32.4001 19.2906 34.1661 18C34.234 17.9321 34.3699 17.8642 34.4378 17.7963C35.185 16.9812 34.9133 16.1661 34.3699 15.351C33.0793 13.517 32.9435 13.3132 32.7397 13.1095C32.1284 12.634 31.2453 12.5661 30.634 12.9736C29.8189 13.5849 29.6152 13.7208 28.8001 14.3321C28.9359 13.5849 29.0038 12.7698 29.0718 12.0227C29.1397 10.9359 29.2076 9.91701 29.2755 8.83022V8.42267C29.2755 8.28682 29.2755 8.15097 29.2755 7.9472C29.2755 7.60758 29.1397 7.26795 28.9359 6.92833C28.5963 6.31701 27.917 5.84154 27.2378 5.70569C26.8303 5.63777 26.6265 5.70569 26.3548 5.70569H25.5397C25.2001 5.70569 24.7925 5.70569 24.4529 5.70569C24.385 4.8906 24.385 4.0755 24.317 3.26041C24.317 2.71701 24.1133 2.10569 23.6378 1.69814C23.0944 1.42645 22.551 1.2906 22.0076 1.35852C22.551 1.42645 22.9586 1.69814 23.2303 2.10569C23.502 2.51324 23.5699 2.92079 23.502 3.39626C23.434 4.3472 23.3661 5.23022 23.2982 6.18116C23.2303 6.24909 23.2303 6.38494 23.2303 6.52078C23.2303 6.79248 23.2303 6.99626 23.2982 7.26795C23.2982 7.33588 23.2982 8.01512 23.2303 9.91701C23.0944 10.4604 22.551 10.868 22.0076 10.868C21.4642 10.868 20.9208 10.4604 20.8529 9.84909V9.71324C20.785 6.99626 20.785 8.42267 20.8529 6.45286C20.8529 6.31701 20.785 6.18116 20.717 6.04531C20.6491 5.16229 20.5812 4.27928 20.5133 3.39626C20.4454 2.92079 20.5133 2.51324 20.785 2.10569C21.0567 1.69814 21.4642 1.42645 22.0076 1.35852C21.4642 1.2906 20.9208 1.42645 20.5133 1.83399C20.3095 2.03777 20.1057 2.24154 20.0378 2.51324C19.902 2.78494 19.902 3.12456 19.902 3.32833C19.834 4.14343 19.7661 4.95852 19.7661 5.70569C19.0189 5.70569 18.2718 5.70569 17.5246 5.70569C17.4567 4.8906 17.4567 4.0755 17.3887 3.32833C17.3887 2.78494 17.185 2.17362 16.7095 1.76607C16.302 1.35852 15.6906 1.22267 15.2152 1.2906C15.7586 1.35852 16.1661 1.63022 16.4378 2.03777C16.7095 2.44531 16.7774 2.85286 16.7095 3.32833C16.6416 4.21135 16.5737 5.09437 16.5057 5.97739C16.3699 6.11324 16.302 6.31701 16.3699 6.45286C16.3699 6.92833 16.4378 7.33588 16.4378 7.81135C16.3699 9.91701 16.3699 9.84909 16.302 10.0529C16.234 10.1887 16.1661 10.3246 16.0303 10.4604C15.8265 10.7321 15.4869 10.868 15.1472 10.8C14.6718 10.8 14.1963 10.4604 14.0604 9.98493C14.0604 9.91701 13.9925 9.84909 13.9925 9.71324C13.9925 9.23777 13.9246 7.74343 13.9246 7.6755C13.9925 6.86041 13.9925 6.38494 13.9925 6.31701C13.9925 6.18116 13.9246 6.04531 13.8567 5.90946C13.7887 5.02645 13.7208 4.14343 13.6529 3.26041C13.585 2.78494 13.6529 2.37739 13.9246 1.96984C14.1963 1.5623 14.6038 1.2906 15.1472 1.22267C14.6038 1.15475 14.0604 1.2906 13.6529 1.69814C13.4491 1.90192 13.2454 2.10569 13.1774 2.37739C13.0416 2.64909 13.0416 2.98871 13.0416 3.19248C12.9737 4.00758 12.9057 4.82267 12.9057 5.56984C12.1586 5.56984 11.4114 5.56984 10.6642 5.56984C10.5963 4.75475 10.5963 3.93965 10.5284 3.19248C10.5284 2.64909 10.3246 2.03777 9.84912 1.63022C9.44158 1.42645 8.83026 1.2906 8.35479 1.35852C8.89818 1.42645 9.30573 1.69814 9.57743 2.10569C9.84912 2.51324 9.91705 2.92079 9.84912 3.39626C9.7812 4.27928 9.71328 5.16229 9.64535 6.04531C9.57743 6.11324 9.5095 6.31701 9.5095 6.45286C9.5095 6.92833 9.57743 7.4038 9.57743 7.81135C9.57743 7.87927 9.5095 9.30569 9.5095 9.84909C9.5095 9.91701 9.5095 9.98493 9.44158 10.1208C9.30573 10.5283 8.83026 10.868 8.35479 10.868C7.87931 10.868 7.40384 10.5283 7.26799 10.0529C7.20007 9.78116 7.20007 7.9472 7.06422 6.45286C6.99629 5.43399 6.92837 4.41512 6.86045 3.39626C6.79252 2.92079 6.86045 2.51324 7.13214 2.10569C7.40384 1.69814 7.81139 1.42645 8.35479 1.35852C7.81139 1.2906 7.26799 1.42645 6.86045 1.83399C6.58875 2.03777 6.4529 2.30946 6.31705 2.58116C6.24913 2.78494 6.1812 3.12456 6.1812 3.39626C6.11328 4.3472 6.04535 5.29814 5.97743 6.18116H4.34724C4.00762 6.18116 3.66799 6.11324 3.19252 6.18116C2.78497 6.24909 2.37743 6.45286 2.10573 6.72456C1.76611 6.99626 1.56233 7.4038 1.49441 7.87927C1.42648 8.35475 1.42648 8.62644 1.42648 9.03399L1.35856 11.1397C1.29063 13.9925 1.22271 16.9132 1.22271 19.7661C1.22271 23.9095 1.15479 32.6717 1.15479 32.1283C1.15479 33.5547 2.24158 34.5736 3.46422 34.6415ZM31.1774 13.9925C31.4491 13.8566 31.7208 13.7887 31.9925 13.9925C32.1284 14.1283 33.6227 16.0302 33.5548 15.9623C33.8944 16.4378 34.1661 16.8453 33.7586 17.3208C33.6906 17.3887 33.6906 17.3887 33.6227 17.4566C33.5548 17.5246 32.468 18.4076 31.8567 18.883C31.585 17.5925 30.634 16.1661 29.4114 15.351C29.751 15.0793 30.7699 14.3321 31.1774 13.9925ZM28.9359 15.6906C29.3435 17.117 30.4303 18.4755 31.585 19.0868C29.8869 20.4453 28.1208 21.7359 26.4227 23.1623C27.102 22.7547 27.8491 22.2793 28.5284 21.8038C28.3925 24.0453 28.2567 29.683 28.1887 31.8566V32.3321C28.1208 32.8755 27.6454 33.351 27.102 33.4868C26.9661 33.5547 26.8303 33.5547 26.6944 33.5547C17.5246 33.351 9.84912 33.283 3.53214 33.283C2.98875 33.2151 2.51328 32.8076 2.51328 32.1963C2.37743 17.8642 2.37743 20.3774 2.37743 19.7661C2.37743 18.068 2.3095 16.3019 2.3095 14.6038C6.4529 15.0793 11.0718 15.2151 15.1472 15.2151C19.2906 15.2151 24.1133 15.0793 28.3925 14.5359C24.2491 17.4566 29.751 13.4491 15.8944 23.3661C15.8265 23.434 15.7586 23.5019 15.6906 23.5698L13.8567 27.1698C13.7208 27.034 13.517 26.9661 13.3812 26.8981C13.1095 26.8302 12.9057 26.7623 12.634 26.7623C12.3623 26.7623 12.1586 26.8302 11.8869 26.8981C11.6152 27.034 11.4114 27.1698 11.1397 27.4415C11.4114 27.7132 11.6152 27.8491 11.8869 27.9849C12.1586 28.0529 12.3623 28.1208 12.634 28.1208C12.9057 28.1208 13.1095 28.0529 13.3812 27.9849C13.3812 27.9849 13.4491 27.9849 13.4491 27.917L12.8378 29.1396C12.7699 29.2755 12.7699 29.4113 12.7699 29.5472C12.8378 29.8189 13.1095 30.0227 13.4491 29.9547C15.4869 29.4793 17.5246 29.0038 19.4944 28.5283C19.5623 28.5283 19.5623 28.5283 19.6303 28.4604C20.785 27.5774 21.9397 26.6944 23.0265 25.8113C24.1812 24.9283 25.268 24.0453 26.4227 23.1623C25.2001 23.9095 23.9774 24.7246 22.7548 25.4717C21.6001 26.2189 20.4454 26.9661 19.2906 27.7132C19.2227 27.3736 19.0869 27.034 18.951 26.6944C18.7472 26.2868 18.5435 25.8793 18.2718 25.5396C18.0001 25.2 17.7284 24.8604 17.3887 24.5887C17.2529 24.4529 17.117 24.3849 16.9812 24.2491C18.4076 23.2302 25.5397 18.2038 28.9359 15.6906ZM16.5737 25.1321C16.7774 25.5396 16.9812 25.9472 17.2529 26.2868C17.5246 26.6264 17.7963 26.9661 18.1359 27.2378C18.3397 27.4415 18.6114 27.5774 18.8831 27.7812C17.3887 28.0529 15.8265 28.3246 14.3321 28.5963L16.4378 24.8604C16.5057 24.9963 16.5737 25.0642 16.5737 25.1321ZM2.24158 8.01512C2.3095 7.74343 2.44535 7.47173 2.5812 7.26795C2.78497 7.06418 3.05667 6.92833 3.32837 6.86041C3.60007 6.79248 4.00762 6.79248 4.34724 6.79248L5.97743 6.72456C5.9095 7.87927 5.9095 8.83022 5.9095 9.98493C5.9095 10.1887 5.97743 10.3246 5.97743 10.5283C6.11328 10.868 6.24913 11.1397 6.4529 11.4113C6.92837 11.9547 7.60762 12.2264 8.28686 12.2264C9.37365 12.2264 10.3246 11.5472 10.6642 10.4604C10.7321 10.3246 10.7321 10.1208 10.7321 9.91701C10.6642 7.6755 10.7321 8.55852 10.6642 7.74343C10.6642 7.53965 10.6642 7.26795 10.7321 7.06418H12.702C12.702 7.33588 12.702 7.53965 12.7699 7.81135C12.702 9.78116 12.702 9.98493 12.8378 10.4604C13.1774 11.4793 14.1284 12.2264 15.2152 12.2264C16.302 12.2264 17.2529 11.5472 17.5925 10.4604C17.7284 10.0529 17.7284 9.98493 17.6604 7.81135C17.6604 7.53965 17.6604 7.33588 17.7284 7.06418H19.6982C19.7661 7.9472 19.7661 7.4038 19.6982 9.91701C19.834 11.2755 20.9208 12.1585 22.1435 12.1585C23.3661 12.1585 24.4529 11.2076 24.5887 9.91701C24.5208 7.33588 24.5208 7.6755 24.5208 7.26795C24.5208 7.20003 24.5208 7.1321 24.5208 7.06418H25.5397H26.3548H27.034C27.3737 7.1321 27.6454 7.33588 27.8491 7.60758C27.917 7.74343 27.985 7.87927 27.985 8.08305V8.42267V8.83022C28.0529 9.91701 28.1208 10.9359 28.1887 12.0227C28.2567 12.8378 28.3925 13.6529 28.4604 14.468C24.2491 13.9246 19.3586 13.8566 15.2152 13.7887C11.1397 13.7887 6.52082 13.9246 2.37743 14.4C2.37743 13.3132 2.3095 12.1585 2.3095 11.0717L2.24158 8.89814C2.24158 8.62644 2.17365 8.2189 2.24158 8.01512Z" fill="#AF9792"></path> <path d="M8.21905 18.883C7.94735 18.8151 7.74358 18.7472 7.47188 18.7472C7.20018 18.7472 6.99641 18.8151 6.72471 18.883C6.45301 19.0189 6.24924 19.1547 5.97754 19.4264C6.24924 19.6981 6.45301 19.834 6.72471 19.9698C6.99641 20.0378 7.20018 20.1057 7.47188 20.1057C7.74358 20.1057 7.94735 20.0378 8.21905 19.9698C8.49075 19.834 8.69452 19.6981 8.96622 19.4264C8.69452 19.0868 8.49075 18.951 8.21905 18.883Z" fill="#AF9792"></path> <path d="M12.634 20.1057C12.9057 20.1057 13.1095 20.0378 13.3812 19.9698C13.6529 19.834 13.8566 19.6981 14.1283 19.4264C13.8566 19.1547 13.6529 19.0189 13.3812 18.883C13.1095 18.8151 12.9057 18.7472 12.634 18.7472C12.3623 18.7472 12.1585 18.8151 11.8868 18.883C11.6151 19.0189 11.4113 19.1547 11.1396 19.4264C11.4113 19.6981 11.6151 19.834 11.8868 19.9698C12.0906 20.0378 12.3623 20.1057 12.634 20.1057Z" fill="#AF9792"></path> <path d="M17.7282 20.1057C17.9999 20.1057 18.2037 20.0378 18.4754 19.9698C18.7471 19.834 18.9509 19.6981 19.2226 19.4264C18.9509 19.1547 18.7471 19.0189 18.4754 18.883C18.2037 18.8151 17.9999 18.7472 17.7282 18.7472C17.4565 18.7472 17.2528 18.8151 16.9811 18.883C16.7094 19.0189 16.5056 19.1547 16.2339 19.4264C16.5056 19.6981 16.7094 19.834 16.9811 19.9698C17.2528 20.0378 17.5245 20.1057 17.7282 20.1057Z" fill="#AF9792"></path> <path d="M8.21905 22.8906C7.94735 22.8227 7.74358 22.7548 7.47188 22.7548C7.20018 22.7548 6.99641 22.8227 6.72471 22.8906C6.45301 23.0265 6.24924 23.1623 5.97754 23.434C6.24924 23.7057 6.45301 23.8416 6.72471 23.9774C6.99641 24.0453 7.20018 24.1133 7.47188 24.1133C7.74358 24.1133 7.94735 24.0453 8.21905 23.9774C8.49075 23.8416 8.69452 23.7057 8.96622 23.434C8.69452 23.0944 8.49075 22.9585 8.21905 22.8906Z" fill="#AF9792"></path> <path d="M12.634 24.1133C12.9057 24.1133 13.1095 24.0453 13.3812 23.9774C13.6529 23.8416 13.8566 23.7057 14.1283 23.434C13.8566 23.1623 13.6529 23.0265 13.3812 22.8906C13.1095 22.8227 12.9057 22.7548 12.634 22.7548C12.3623 22.7548 12.1585 22.8227 11.8868 22.8906C11.6151 23.0265 11.4113 23.1623 11.1396 23.434C11.4113 23.7057 11.6151 23.8416 11.8868 23.9774C12.0906 24.0453 12.3623 24.1133 12.634 24.1133Z" fill="#AF9792"></path> <path d="M8.21905 26.8982C7.94735 26.8303 7.74358 26.7623 7.47188 26.7623C7.20018 26.7623 6.99641 26.8303 6.72471 26.8982C6.45301 27.034 6.24924 27.1699 5.97754 27.4416C6.24924 27.7133 6.45301 27.8491 6.72471 27.985C6.99641 28.0529 7.20018 28.1208 7.47188 28.1208C7.74358 28.1208 7.94735 28.0529 8.21905 27.985C8.49075 27.8491 8.69452 27.7133 8.96622 27.4416C8.69452 27.102 8.49075 26.9661 8.21905 26.8982Z" fill="#AF9792"></path> </svg> 