<?xml version="1.0" encoding="UTF-8"?> <svg xmlns="http://www.w3.org/2000/svg" width="36" height="36" viewBox="0 0 36 36" fill="none"> <path d="M34.4533 23.7067C34.5333 23.3867 34.64 22.9333 34.7733 22.3467C35.6 17.8933 34.9867 11.1467 34.3467 9.54668C34.2133 9.20001 34 8.82668 33.7067 8.53335C33.44 8.24001 33.12 8.00001 32.8 7.78668C30.8 6.48001 28.24 6.53335 25.7067 6.42668C21.9733 6.32001 11.9467 6.32001 10.16 6.42668C7.83999 6.53335 5.65332 6.85335 3.73332 8.08001C2.79998 8.74668 1.91998 9.60001 1.57332 10.6933C1.49332 10.9067 1.43998 11.12 1.38665 11.3333C0.90665 13.2 1.11998 14.4267 0.906651 20.64C0.799984 22.5867 0.879984 24.6933 1.59998 26.48C1.81332 27.04 2.13332 27.6 2.58665 28.0267C3.03998 28.48 3.59999 28.7733 4.15999 28.9333C4.71999 29.0933 5.27999 29.1467 5.78665 29.2C10.2133 29.4933 15.9733 29.68 20.6133 29.6533C22.8 29.6267 29.0667 29.6533 30.8533 28.96C31.2 28.8267 31.4933 28.6667 31.76 28.48C32.2933 28.1333 32.6933 27.7333 33.0133 27.36C33.3333 26.9867 33.5467 26.64 33.7067 26.32C34.0533 25.68 34.1867 25.2267 34.2667 24.9067C34.4 24.2667 34.3467 24.1867 34.2667 24.1867C34.1867 24.16 34.1333 24.2133 33.8667 24.7733C33.7333 25.0667 33.5467 25.4667 33.1733 26.0267C32.9067 26.4267 32.56 26.9067 32.0267 27.3333C31.0133 25.7067 24.56 20.24 23.12 19.0133C23.0667 18.9867 23.04 18.96 23.0133 18.9067C23.12 18.8267 23.2 18.7467 23.3067 18.6667C26.08 16.4533 27.9733 14.56 29.3867 13.12C30.3733 12.1067 32.32 9.97335 32.9867 8.72001C33.0667 8.80001 33.1733 8.85335 33.2267 8.93335C33.44 9.17335 33.6267 9.44001 33.76 9.73335C34.32 11.04 35.1467 17.3333 34.5333 22.2667C34.3733 23.4667 34.24 24.1333 34.2667 24.1333C34.2933 24.16 34.3467 24.0267 34.4533 23.7067ZM1.94665 20.6933C2.13332 14.48 1.91998 13.3067 2.34665 11.6C2.39998 11.4133 2.42665 11.2267 2.50665 11.0667C2.77332 10.2933 3.25332 9.73335 3.89332 9.22668C4.13332 9.54668 4.71999 10.1867 5.51999 11.0667C7.57332 13.2267 10.32 15.76 13.28 18.16C13.52 18.3467 13.76 18.5333 14 18.7467C12.7467 19.5467 4.31999 26.32 3.27998 27.2267C3.01332 26.9333 2.79998 26.5333 2.61332 26.1067C1.94665 24.4533 1.89332 22.4267 1.94665 20.6933ZM22.8267 19.3067C24.56 21.6 30.1333 26.8267 31.4667 27.76C31.4133 27.7867 31.3867 27.8133 31.3333 27.84C30.8533 28.1333 30.2933 28.32 29.6 28.4533C28.9067 28.56 28.1067 28.5867 27.1733 28.6133C25.36 28.6667 23.1733 28.6933 20.5867 28.6933C15.44 28.6667 9.19999 28.4 5.83999 28.1867C4.98665 28.1333 4.13332 27.9733 3.54665 27.52C7.01332 25.6 12.8 21.2 14.56 19.3067C14.5867 19.28 14.5867 19.28 14.5867 19.2533C14.6667 19.3067 14.7467 19.3867 14.8267 19.44C15.36 19.84 15.8667 20.2667 16.48 20.64C17.0667 21.0133 17.8133 21.3067 18.5867 21.28C19.36 21.2533 20.0267 20.9867 20.5867 20.6667C21.1467 20.3467 21.6267 20 22.0533 19.68C22.2667 19.52 22.48 19.36 22.6933 19.2C22.7467 19.2 22.8 19.2533 22.8267 19.3067ZM18.5867 20.2133C18.08 20.24 17.5467 20.0533 17.0133 19.7333C16.48 19.44 15.9733 19.0133 15.4133 18.64C11.9733 16.1067 8.95999 13.5733 5.78665 10.7467C4.90665 9.97335 4.29332 9.38668 3.97332 9.14668C4.05332 9.06668 4.15999 9.01335 4.26665 8.93335C6.05332 7.76001 8.05332 7.52001 10.1867 7.38668C11.3867 7.30668 21.0933 7.14668 25.6533 7.20001C28 7.25335 30.5067 7.14668 32.4 8.34668C32.4533 8.37335 32.48 8.40001 32.5333 8.45335C30.7733 10.2133 21.6 20.1067 18.5867 20.2133Z" fill="#AF9792"></path> </svg> 