<svg width="42" height="43" viewBox="0 0 42 43" fill="none" xmlns="http://www.w3.org/2000/svg">
<g clip-path="url(#clip0_2_206)">
<path d="M14.429 36.4144C22.6869 38.9762 32.8144 32.6877 35.4908 24.7425C38.3043 16.3912 33.6381 5.78436 25.5887 2.23955C25.7222 1.91187 25.8564 1.58484 25.9995 1.26388C26.335 0.509494 25.3407 -0.110478 24.8764 0.607213C24.646 0.963344 24.4556 1.34445 24.2792 1.73315C23.0601 1.33142 21.7757 1.0856 20.4356 1.0311C19.5963 0.997003 19.6163 2.25671 20.4356 2.32207C21.597 2.41458 22.7036 2.65019 23.755 2.99807C23.7034 3.13162 23.6515 3.26582 23.5996 3.39828C23.4371 3.81369 23.0788 4.42411 22.9279 4.98263C22.8239 5.15722 22.716 5.33051 22.5998 5.50184C22.58 5.53094 22.5646 5.56004 22.5522 5.58914C17.0016 4.26581 11.0379 6.35004 7.75086 11.2282C3.94894 16.8705 5.7322 24.7981 10.3658 29.3535C11.3104 30.282 12.454 31.1324 13.7026 31.6942C13.693 31.9519 13.8261 32.2104 14.1517 32.3063C14.2546 32.3367 14.3573 32.3611 14.46 32.3891C14.1992 32.937 13.7884 33.7882 13.3977 34.7124C12.718 34.4863 12.0516 34.214 11.4079 33.8807C10.8646 33.5991 10.4468 34.3435 10.935 34.6896C11.5834 35.1493 12.2585 35.5267 12.9493 35.8431C12.7619 36.3549 12.6023 36.8598 12.4959 37.3224C12.3256 37.6372 12.1601 37.9597 12.0253 38.2776C10.4655 38.6216 9.3452 39.4924 9.61533 41.4481C9.65746 41.7538 9.93216 41.825 10.1684 41.7453C10.2462 41.7779 10.3306 41.8016 10.4301 41.8014C14.2998 41.7907 18.164 41.6502 22.0235 42.0155C23.8026 42.1835 25.5915 42.2793 27.3787 42.2843C28.7715 42.2882 30.6916 42.3812 31.9076 41.5629C32.9512 40.8609 32.3115 39.6709 31.5154 39.0861C29.707 37.7569 27.0045 37.9491 24.8903 38.044C22.6567 38.1441 20.4026 38.5725 18.1659 38.3814C17.1121 38.2915 15.397 38.0459 13.7756 38.0865C13.9506 37.6361 14.1002 37.1912 14.247 36.8481C14.3091 36.7041 14.3682 36.5591 14.429 36.4144ZM24.6378 4.3683C24.7887 4.08514 24.9264 3.7935 25.0577 3.49839C32.4401 6.77696 36.4858 16.0637 34.3567 23.9342C32.1697 32.0182 22.8677 36.8255 14.9482 35.1356C15.2633 34.3302 15.5529 33.5152 15.7992 32.6874C22.727 33.8931 29.14 29.8147 31.5002 23.0713C33.7723 16.5801 31.3322 9.07444 24.7952 6.32181C24.4727 6.18609 24.1463 6.06535 23.8184 5.95461C24.2671 5.64886 24.4653 4.88122 24.6378 4.3683ZM9.5098 26.3214C7.7185 23.7642 6.90961 20.614 7.05857 17.5158C7.16541 15.2933 7.89961 13.3167 9.06507 11.6738C9.07462 11.6946 9.07918 11.7163 9.09265 11.7365C9.69872 12.6401 9.32305 14.2959 9.28461 15.3098C9.24161 16.4411 9.19818 17.8605 9.75583 18.8945C11.5628 22.245 14.1193 24.5179 14.3273 28.5416C14.3519 29.015 15.0177 29.0069 15.0561 28.5416C15.0602 28.4916 15.0587 28.4445 15.062 28.3948H15.0622C16.0027 28.3155 16.8372 27.2059 17.4476 26.5846C18.4502 25.5642 19.3757 24.2832 19.6732 22.8663C19.7334 22.5792 19.7568 22.3121 19.7479 22.0635C19.987 21.7898 19.9453 21.3405 19.5451 21.1505C18.8135 19.4724 16.2789 18.9202 14.6057 18.5562C12.8036 18.1645 9.51848 16.4209 11.6661 14.4839C12.8051 13.4566 14.2483 12.8438 15.3575 11.765C16.0363 11.1048 18.7709 7.63059 17.4489 6.6584C18.4309 6.5103 19.4374 6.46991 20.4478 6.54939C22.1965 6.68663 23.7646 7.17001 25.1257 7.91724C25.1003 7.92896 25.0749 7.93917 25.0499 7.95915C23.9568 8.8308 23.0271 9.85858 22.5118 11.1687C22.3609 11.5524 22.808 11.9422 23.1718 11.8286C24.5639 11.3936 24.9998 12.3839 26.216 12.7747C26.7593 12.9493 27.433 12.8894 27.9928 12.8916C28.5532 12.8937 29.2134 13.0129 29.7641 12.8916C30.1697 13.7474 30.4746 14.6616 30.6761 15.6144C28.4184 13.9943 22.9537 12.1057 21.8426 14.6637C21.0282 16.5378 23.142 18.66 24.6916 19.2882C26.5192 20.0294 27.5074 20.6745 27.4501 22.8747C27.4186 24.0895 26.8293 25.625 27.7487 26.6402C27.8269 26.7262 27.9346 26.7759 28.0486 26.7972C27.3224 27.7333 26.4786 28.5785 25.5283 29.2957C22.7518 31.3908 19.4083 31.877 16.1004 31.388C13.5237 30.0766 11.2627 28.8239 9.5098 26.3214ZM30.3404 39.9004C30.933 40.1725 31.0924 40.3668 31.0101 40.5084C30.9413 40.4148 30.8664 40.3275 30.7832 40.2487C30.7063 40.1228 30.5891 40.0146 30.4301 39.9486C30.3882 39.9312 30.3458 39.9169 30.3042 39.9C30.2735 39.8832 30.2436 39.8661 30.2125 39.85C30.2551 39.868 30.2985 39.8813 30.3404 39.9004ZM14.5152 40.4339C14.6405 40.4237 14.7662 40.4179 14.8917 40.4098C14.9962 40.4502 15.1019 40.4867 15.2081 40.5219C14.7412 40.513 14.2748 40.5023 13.8073 40.4965C14.0518 40.4724 14.2919 40.4522 14.5152 40.4339Z" fill="#BAB0FF"/>
</g>
<defs>
<clipPath id="clip0_2_206">
<rect width="42" height="42" fill="white" transform="translate(0 0.289551)"/>
</clipPath>
</defs>
</svg>
