<svg width="32" height="32" viewBox="0 0 32 32" fill="none" xmlns="http://www.w3.org/2000/svg">
<g clip-path="url(#clip0_9_915)">
<path d="M9.02771 18.7753C9.49819 19.4865 9.64834 20.3623 9.44179 21.1894L6.59255 19.9723C6.26197 19.6701 6.07397 19.2428 6.0747 18.795V17.2105C6.0747 16.9593 5.56589 15.5039 4.61688 15.1902C3.9667 14.9731 3.25207 15.0815 2.69541 15.4817C2.13899 15.8818 1.8089 16.5252 1.80768 17.2105V19.5194C1.80792 20.8518 2.26082 22.1446 3.09215 23.1856L5.29049 25.933C5.94066 26.7439 6.79471 27.3669 7.76545 27.7385L11.4204 29.1466C11.9612 29.3534 12.8072 30.13 13.741 31.2799C14.1449 31.7741 14.7504 32.0595 15.3886 32.0559H26.3571C26.8896 32.0561 27.3871 31.7912 27.6845 31.3495C27.9821 30.9079 28.0402 30.347 27.8398 29.8536L25.4835 24.0626C25.3402 23.6317 25.2474 23.1856 25.2066 22.7334L25.0279 20.7514C25.026 20.7282 25.022 20.7053 25.0162 20.6826L24.5069 15.2676C24.3707 13.7738 23.8667 12.337 23.04 11.0855L20.4801 7.21497C20.0338 6.54307 19.2806 6.13949 18.4742 6.14022C18.0042 6.13998 17.5447 6.27914 17.1535 6.53965C16.7675 6.79845 16.4646 7.16297 16.281 7.58974L15.6799 6.68321C15.1894 5.94099 14.3282 5.53131 13.4429 5.6192C12.5579 5.7071 11.7939 6.27768 11.4587 7.10193L10.8791 6.22274C10.1479 5.11894 8.66075 4.81546 7.55572 5.54498C7.12846 5.82991 6.80447 6.24545 6.63259 6.7296L4.39934 3.79613C3.66811 2.69159 2.18001 2.38836 1.07498 3.11861C0.542485 3.47141 0.172596 4.02148 0.0468579 4.64773C-0.0786357 5.27373 0.0502761 5.92415 0.405516 6.45493L9.02771 18.7753ZM1.09256 4.85477C1.1619 4.50783 1.36772 4.20337 1.66363 4.00952C2.29232 3.61253 3.12316 3.79295 3.53041 4.41481L6.72317 8.60761L6.72634 8.61347L6.73269 8.62568C6.77761 8.7104 6.82449 8.79463 6.87625 8.873C6.89163 8.89058 6.90824 8.90694 6.92581 8.92208L11.2807 15.5049C11.4482 15.7361 11.7678 15.7942 12.0061 15.6372C12.2444 15.48 12.3169 15.1631 12.1704 14.9182L7.66779 8.10832L7.66462 8.10246C7.39263 7.50478 7.59625 6.79796 8.14462 6.43662C8.76256 6.04915 9.57583 6.21518 9.9926 6.81383L11.6621 9.34128C11.6865 9.37791 11.7151 9.41135 11.7473 9.44114L14.2242 13.3634C14.3817 13.6125 14.7111 13.6869 14.9601 13.5294C15.2091 13.3722 15.2836 13.0429 15.1261 12.7938L12.5662 8.74018C12.3699 8.44696 12.3001 8.08708 12.3726 7.74185C12.4427 7.39467 12.6482 7.08972 12.9437 6.8944C13.5616 6.50669 14.3751 6.67247 14.7919 7.27137L16.3049 9.55858C16.312 9.57176 16.3198 9.58519 16.3278 9.59837L16.3322 9.60497C16.3747 9.68871 16.4184 9.76904 16.4697 9.85131C16.486 9.87207 16.5039 9.89184 16.5231 9.90991L17.8218 11.9635C17.9214 12.1295 18.1033 12.2284 18.2967 12.222C18.4903 12.2157 18.6651 12.1048 18.7537 11.9327C18.8421 11.7603 18.8301 11.5538 18.7227 11.3926L17.258 9.07687C17.0012 8.48236 17.2048 7.78897 17.7422 7.42763C18.3601 7.03992 19.1734 7.20594 19.5899 7.80484L22.1499 11.6737C22.8791 12.7789 23.3237 14.047 23.4443 15.3657L23.9602 20.8437C23.9619 20.8657 23.9654 20.8874 23.9702 20.9089L24.1436 22.8289C24.1929 23.3746 24.3069 23.9127 24.483 24.4315L26.8505 30.2548C26.9174 30.4191 26.8981 30.6061 26.7992 30.7533C26.7001 30.9005 26.5346 30.9889 26.3571 30.9892H15.3886C15.0709 30.9914 14.7692 30.85 14.5677 30.6041C13.8158 29.6793 12.7244 28.5027 11.8022 28.1507L8.14608 26.7422C7.35259 26.4382 6.65407 25.9284 6.12256 25.2653L3.92471 22.5186C3.24475 21.6667 2.87437 20.6093 2.87437 19.5194V17.2105C2.87559 16.8677 3.04137 16.5464 3.32019 16.3467C3.59877 16.1472 3.95645 16.0938 4.28141 16.2029C4.56243 16.2947 4.92158 16.9688 5.00801 17.2672V18.7941C5.00679 19.5837 5.35739 20.3327 5.9641 20.8379C6.00414 20.8713 6.04858 20.8987 6.09643 20.9189L9.02307 22.1692C9.31019 22.2918 9.63687 22.2825 9.91667 22.1436C10.1965 22.0047 10.4011 21.75 10.477 21.447C10.7556 20.3247 10.5495 19.1369 9.90934 18.1737L1.28666 5.85481C1.09036 5.5611 1.02053 5.20073 1.09256 4.85477V4.85477Z" fill="#877A77"/>
<path d="M16.7417 29.9225H21.0088C21.3032 29.9225 21.542 29.6837 21.542 29.3892C21.542 29.0945 21.3032 28.8558 21.0088 28.8558H16.7417C16.4473 28.8558 16.2085 29.0945 16.2085 29.3892C16.2085 29.6837 16.4473 29.9225 16.7417 29.9225V29.9225Z" fill="#877A77"/>
<path d="M23.1419 29.9225H24.2086C24.503 29.9225 24.7418 29.6837 24.7418 29.3892C24.7418 29.0945 24.503 28.8558 24.2086 28.8558H23.1419C22.8472 28.8558 22.6084 29.0945 22.6084 29.3892C22.6084 29.6837 22.8472 29.9225 23.1419 29.9225V29.9225Z" fill="#877A77"/>
<path d="M30.9331 1.65465C30.6387 1.65465 30.3999 1.89343 30.3999 2.18788C30.3999 2.48257 30.6387 2.72135 30.9331 2.72135H31.4666C31.761 2.72135 31.9998 2.48257 31.9998 2.18788C31.9998 1.89343 31.761 1.65465 31.4666 1.65465H30.9331Z" fill="#877A77"/>
<path d="M29.3331 2.1879C29.3331 1.89345 29.0943 1.65467 28.7996 1.65467H24.2203L24.9098 0.964944C25.1119 0.755706 25.109 0.423173 24.9034 0.217354C24.6976 0.0115342 24.3651 0.00884862 24.1556 0.210761L22.5557 1.81093C22.4553 1.91103 22.3989 2.04678 22.3989 2.18863C22.3989 2.33024 22.4553 2.46598 22.5557 2.56609L24.1556 4.16625C24.3651 4.36841 24.6976 4.36548 24.9034 4.15966C25.109 3.95409 25.1119 3.62131 24.9098 3.41207L24.2203 2.72137H28.7996C29.0943 2.72137 29.3331 2.48259 29.3331 2.1879V2.1879Z" fill="#877A77"/>
<path d="M18.1331 1.65465C17.8384 1.65465 17.5996 1.89343 17.5996 2.18788C17.5996 2.48257 17.8384 2.72135 18.1331 2.72135H18.6663C18.961 2.72135 19.1998 2.48257 19.1998 2.18788C19.1998 1.89343 18.961 1.65465 18.6663 1.65465H18.1331Z" fill="#877A77"/>
<path d="M16.5328 2.1879C16.5328 1.89345 16.294 1.65467 15.9993 1.65467H11.42L12.1097 0.964944C12.3116 0.755706 12.309 0.423173 12.1031 0.217354C11.8973 0.0115342 11.5648 0.00884862 11.3555 0.210761L9.75538 1.81093C9.65503 1.91103 9.59863 2.04678 9.59863 2.18863C9.59863 2.33024 9.65503 2.46598 9.75538 2.56609L11.3555 4.16625C11.5648 4.36841 11.8973 4.36548 12.1031 4.15966C12.309 3.95409 12.3116 3.62131 12.1097 3.41207L11.42 2.72137H15.9993C16.294 2.72137 16.5328 2.48259 16.5328 2.1879Z" fill="#877A77"/>
</g>
<defs>
<clipPath id="clip0_9_915">
<rect width="32" height="32" fill="white"/>
</clipPath>
</defs>
</svg>
