<svg width="90" height="90" viewBox="0 0 90 90" fill="none" xmlns="http://www.w3.org/2000/svg">
<g clip-path="url(#clip0_669_236)">
<path d="M43.0668 3.86646C19.2816 3.86646 0 23.1481 0 46.9332C0 57.2359 3.61969 66.6923 9.65426 74.1039L27.598 87.1353C32.3993 88.9842 37.614 90 43.0668 90C66.8519 90 86.1335 70.7184 86.1335 46.9332C86.1335 23.1481 66.8519 3.86646 43.0668 3.86646Z" fill="#5C45BF"/>
<path d="M31.6246 55.216C33.9377 52.9029 36.2259 51.1558 37.7161 50.4696L35.9098 48.6633C33.2824 48.0141 30.2342 48.8361 28.0086 51.0618C25.7831 53.2874 24.9609 56.3356 25.6101 58.963L27.2477 60.6006C28.0911 59.143 29.6522 57.1885 31.6246 55.216Z" fill="#1E9EF4"/>
<path d="M40.8885 53.6396L39.0821 51.8333C38.3957 53.3237 36.6486 55.6119 34.3357 57.9248C32.3633 59.897 30.4087 61.4583 28.9512 62.3016L30.5887 63.9391C33.2162 64.5883 36.2644 63.7663 38.4899 61.5406C40.7157 59.315 41.5378 56.2668 40.8885 53.6396Z" fill="#73C3F9"/>
<path d="M22.9487 80.9318L20.3535 83.527C22.6348 84.9459 25.0579 86.1576 27.5976 87.1354C27.8147 86.4283 27.6446 85.6278 27.0849 85.0682L22.9487 80.9318Z" fill="#FFC839"/>
<path d="M15.2871 79.8397C16.921 81.2204 18.6584 82.4818 20.4872 83.6102L23.0573 81.0399L18.5721 76.5545L15.2871 79.8397Z" fill="#FFDD40"/>
<path d="M17.959 65.7855L22.5986 61.1459L25.6024 64.1497L20.9628 68.7893L17.959 65.7855Z" fill="#FFB332"/>
<path d="M12.4988 77.268L18.269 71.4978L15.2647 68.4935L9.6543 74.1041C10.5506 75.2049 11.4996 76.2611 12.4988 77.268Z" fill="#FFB332"/>
<path d="M81.2446 34.2562C81.8858 31.4014 81.4056 28.4479 79.8925 25.9398C78.7692 24.078 76.3404 23.4773 74.4793 24.6004C72.2523 25.9442 73.2532 29.389 75.8558 29.3259C76.8764 29.3015 77.7103 30.1099 77.7344 31.1164C77.7586 32.1303 76.958 32.9704 75.9441 32.9948C73.7187 33.0486 71.6221 31.8974 70.4722 29.9914C68.7365 27.1144 69.6138 23.3805 72.4138 21.5664C71.5458 21.2068 70.7327 20.6757 70.028 19.9712C69.2772 19.2204 68.7242 18.3463 68.3649 17.4139C66.5663 20.2637 62.7977 21.1674 59.8993 19.4187C57.9934 18.2698 56.8423 16.1727 56.8959 13.9468C56.9203 12.9329 57.7604 12.1321 58.7743 12.1565C59.7653 12.1802 60.5897 13.0004 60.5646 14.0351C60.502 16.6356 63.9454 17.6403 65.2903 15.4116C66.4134 13.5501 65.8126 11.122 63.9509 9.99842C61.4428 8.48548 58.4893 8.00524 55.6345 8.64632C47.8141 10.4022 44.4755 19.9612 47.0321 27.6173C47.9004 30.2185 48.2833 31.9303 48.4454 32.5418L48.4737 32.5795C50.303 35.0214 50.326 38.4493 48.5299 40.9154L47.8779 41.8106L47.9553 41.8878L48.8505 41.2356C51.3981 39.3799 54.8971 39.4583 57.3594 41.4262L57.399 41.4578C57.9634 41.6078 59.7822 42.0268 62.2735 42.8588C69.9346 45.4168 79.4896 42.0731 81.2446 34.2562Z" fill="#FF4155"/>
<path d="M66.5137 43.4531C61.7736 40.3156 64.2495 35.2608 64.2495 35.2608C64.2495 35.2608 62.8751 26.6688 61.1208 23.5846C60.321 22.1785 60.4941 20.8942 60.9183 19.9118C60.5702 19.7805 60.2289 19.6175 59.8993 19.4187C57.9935 18.2698 56.8423 16.1727 56.8959 13.9468C56.9203 12.9329 57.7604 12.1321 58.7743 12.1565C59.7653 12.1804 60.5897 13.0004 60.5646 14.0351C60.502 16.6356 63.9454 17.6403 65.2903 15.4116C66.4134 13.5501 65.8126 11.122 63.9509 9.99842C61.4428 8.48548 58.4893 8.00524 55.6345 8.64632C47.8141 10.4022 44.4755 19.9612 47.0321 27.6173C47.9004 30.2185 48.2833 31.9303 48.4454 32.5418L48.4737 32.5795C50.303 35.0214 50.326 38.4493 48.5299 40.9154L47.8779 41.8106L47.9553 41.8878L48.8505 41.2356C51.3981 39.3799 54.8971 39.4583 57.3594 41.4263L57.399 41.458C57.9634 41.6079 59.7822 42.027 62.2735 42.859C63.7434 43.3497 65.2829 43.6226 66.8236 43.689C66.7266 43.6062 66.625 43.5268 66.5137 43.4531Z" fill="#E80054"/>
<path d="M20.8535 68.6819L25.4932 64.0422L28.4969 67.046L23.8573 71.6857L20.8535 68.6819Z" fill="#FFC839"/>
<path d="M12.3926 77.1585C13.3877 78.1684 14.4316 79.1297 15.5218 80.0378L21.1658 74.394L18.1615 71.3897L12.3926 77.1585Z" fill="#FFC839"/>
<path d="M27.2031 60.5554L28.9945 62.3467C30.5734 61.9474 32.9092 60.413 35.1349 58.1874C37.3605 55.9618 38.895 53.6261 39.2942 52.0472L37.5029 50.2558C35.924 50.655 33.5882 52.1896 31.3625 54.4151C29.1369 56.6405 27.6025 58.9765 27.2031 60.5554Z" fill="#49B1F7"/>
<path d="M86.4128 19.5234C86.0806 18.7233 85.246 18.2752 84.3804 18.3144C83.505 18.354 82.6497 18.023 82.03 17.4032C81.2083 16.5814 80.9432 15.4119 81.2311 14.3641C79.9059 14.0707 78.6463 13.4117 77.6174 12.3829C77.6047 12.3702 77.5933 12.357 77.5807 12.3444C77.5471 12.4094 77.5158 12.4764 77.4884 12.5465C76.4711 15.1484 77.0118 18.2241 79.1105 20.3227C80.566 21.7782 82.5799 22.5481 84.636 22.4354C86.0154 22.3598 87.0039 20.9469 86.4128 19.5234Z" fill="#FEE884"/>
<path d="M75.6071 8.63859C74.5393 8.96273 73.3311 8.70486 72.4884 7.86216C71.8688 7.24253 71.5376 6.38718 71.5772 5.51179C71.6164 4.64625 71.1683 3.81164 70.3681 3.47941C68.9447 2.88826 67.5317 3.87685 67.4562 5.25603C67.3435 7.31214 68.1134 9.32607 69.5689 10.7815C71.6675 12.8802 74.743 13.4209 77.3451 12.4036C77.4156 12.3761 77.4829 12.3444 77.5483 12.3107C76.5265 11.2614 75.8791 9.98121 75.6071 8.63859Z" fill="#FFB332"/>
<path d="M47.3345 42.4317C44.7261 44.3315 41.1279 44.2731 38.579 42.2592L37.8163 43.0219C37.1654 43.6728 37.1654 44.7281 37.8163 45.379L44.2793 51.8419C44.9302 52.4929 45.9854 52.4929 46.6363 51.8419L47.4129 51.0653C45.4916 48.5246 45.4649 44.9986 47.3345 42.4317Z" fill="#FFB332"/>
<path d="M38.579 42.2592L37.8163 43.0219C37.1654 43.6728 37.1654 44.7281 37.8163 45.379L41.1024 48.665C41.6237 45.2317 45.7346 46.4734 45.7346 46.4734L45.9754 46.1225C46.0779 44.8181 46.5303 43.5361 47.3347 42.4317C44.7263 44.3315 41.1279 44.2731 38.579 42.2592Z" fill="#FF9433"/>
<path d="M64.2298 34.904L59.7743 30.4486L65.8607 28.8177L66.0952 28.8805C66.1081 28.5463 65.9845 28.2167 65.7423 27.9745L61.6668 23.899C61.4246 23.6568 61.095 23.5334 60.7606 23.5461L60.8234 23.7807L59.1925 29.8671L54.7371 25.4116L54.6742 25.1771C54.3782 25.333 54.1544 25.605 54.0658 25.9358L52.5742 31.503C52.4856 31.8338 52.5434 32.1811 52.7218 32.4643L52.8935 32.2926L58.9798 30.6617L57.3489 36.7481L57.1772 36.9198C57.4602 37.0981 57.8075 37.1559 58.1383 37.0673L63.7055 35.5756C64.0365 35.4871 64.3082 35.2631 64.4643 34.9671L64.2298 34.904Z" fill="#49B1F7"/>
<path d="M54.3809 25.3909L59.3159 30.3258L61.1222 23.5846C60.9196 23.5302 60.7028 23.5283 60.4931 23.5846L54.9258 25.0764C54.7161 25.1325 54.5292 25.2425 54.3809 25.3909Z" fill="#73C3F9"/>
<path d="M52.5742 32.1321C52.6285 32.3347 52.7352 32.5234 52.8887 32.6768L56.9644 36.7525C57.1178 36.9059 57.3064 37.0128 57.5093 37.067L59.3156 30.3257L52.5742 32.1321Z" fill="#1E9EF4"/>
<path d="M59.3164 30.3257L64.2513 35.2608C64.3997 35.1124 64.5097 34.9258 64.5658 34.7161L66.0576 29.1487C66.1137 28.939 66.1119 28.7223 66.0576 28.5196L59.3164 30.3257Z" fill="#73C3F9"/>
<path d="M85.0492 35.1106C85.9114 31.2703 85.2657 27.2981 83.2312 23.9256C80.9983 20.2224 76.1676 19.0278 72.4648 21.2616C69.4218 23.0975 68.4396 27.067 70.2754 30.1099C71.4678 32.0862 73.6418 33.2798 75.9495 33.2241C77.0893 33.1966 77.991 32.2506 77.9636 31.1108C77.9363 29.9709 76.9899 29.0691 75.8502 29.0967C75.0207 29.1168 74.2391 28.6877 73.8106 27.9773C73.1507 26.8835 73.5038 25.4568 74.5976 24.7969C76.3511 23.7389 78.6375 24.3049 79.6961 26.0583C81.1783 28.5154 81.6488 31.409 81.0208 34.206C80.3924 37.0042 78.7307 39.3856 76.3417 40.9119C76.2234 40.9875 76.104 41.0615 75.9834 41.1344C71.874 43.6136 66.9034 44.1628 62.3463 42.641C60.5662 42.0467 58.7447 41.5304 56.9324 41.1063C56.9271 41.1051 56.9217 41.1045 56.9164 41.1033C57.281 41.3483 57.6264 41.6294 57.9453 41.9485C58.6607 42.6639 58.6607 43.8281 57.9453 44.5435C57.4369 45.0519 56.7028 45.1971 56.0633 44.9831L55.9355 45.1109C55.9544 45.1159 55.9726 45.1217 55.9916 45.1262C57.6805 45.5216 59.3786 46.003 61.0387 46.5573C66.7449 48.4626 72.9695 47.7745 78.1163 44.6694C78.2672 44.5783 78.4164 44.4857 78.5642 44.3913C81.8775 42.2745 84.1806 38.9786 85.0492 35.1106Z" fill="#FEE884"/>
<path d="M68.6319 17.4257C70.8656 13.723 69.6706 8.89275 65.9678 6.65927C62.5954 4.62478 58.6231 3.97914 54.783 4.84134C50.9147 5.70988 47.6188 8.01296 45.5021 11.3264C45.4079 11.4741 45.315 11.6235 45.224 11.7743C42.1188 16.9212 41.4308 23.1456 43.3361 28.8518C43.8589 30.4173 44.314 32.0166 44.6961 33.6102L44.7445 33.5619C44.5945 32.9574 44.7531 32.2915 45.2247 31.8199C45.9401 31.1045 47.1043 31.1045 47.8198 31.8199C48.2019 32.202 48.5311 32.6218 48.8071 33.0679C48.8006 33.0314 48.7959 32.9948 48.7873 32.9581C48.3631 31.146 47.8468 29.3245 47.2525 27.5442C45.7308 22.9871 46.2799 18.0165 48.7591 13.9073C48.8321 13.7865 48.9061 13.6671 48.9817 13.549C50.5082 11.1598 52.8895 9.49814 55.6877 8.86972C58.4849 8.24166 61.3785 8.71222 63.8354 10.1944C65.5886 11.2524 66.1548 13.5394 65.097 15.2928C64.4371 16.3865 63.0103 16.7396 61.9164 16.0797C61.206 15.651 60.777 14.8697 60.797 14.0402C60.8246 12.9004 59.9228 11.9542 58.7829 11.9267C57.6431 11.8993 56.6971 12.8011 56.6696 13.9408C56.6139 16.2487 57.8073 18.4229 59.7838 19.6149C62.8264 21.4511 66.7959 20.4688 68.6319 17.4257Z" fill="#FFDD40"/>
<path d="M47.8565 52.04C45.0296 49.2131 45.0296 44.6134 47.8565 41.7863C50.6834 38.9594 55.2833 38.9594 58.1102 41.7863C58.9163 42.5925 58.9163 43.8996 58.1102 44.7057C57.304 45.5118 55.9969 45.5118 55.1908 44.7057C53.9737 43.4886 51.9932 43.4886 50.7761 44.7057C49.559 45.9228 49.559 47.9032 50.7761 49.1204C51.4027 49.7471 52.2702 50.0786 53.1561 50.0301C54.2945 49.9677 55.268 50.8401 55.3304 51.9785C55.3928 53.1168 54.5206 54.0903 53.3822 54.1527C51.3259 54.2654 49.312 53.4953 47.8565 52.04Z" fill="#FFDD40"/>
<path d="M37.7251 41.9115C40.5521 44.7384 45.1517 44.7386 47.9788 41.9115C50.8057 39.0846 50.8057 34.4847 47.9788 31.6578C47.1727 30.8515 45.8656 30.8515 45.0594 31.6578C44.2533 32.464 44.2533 33.7711 45.0594 34.5772C46.2766 35.7943 46.2766 37.7748 45.0594 38.992C43.8423 40.2091 41.862 40.2091 40.6447 38.992C40.018 38.3653 39.6865 37.4978 39.735 36.6121C39.7974 35.4735 38.925 34.5002 37.7867 34.4378C36.6483 34.3754 35.6748 35.2476 35.6124 36.386C35.4996 38.4421 36.2697 40.456 37.7251 41.9115Z" fill="#FFC839"/>
<path d="M77.401 12.5993C74.5226 9.72086 74.5226 5.03735 77.401 2.15875C80.2794 -0.719666 84.9631 -0.719666 87.8415 2.15875C90.7199 5.03717 90.7199 9.72069 87.8415 12.5991C84.9629 15.4777 80.2794 15.4777 77.401 12.5993ZM84.922 5.0783C83.6533 3.80969 81.5892 3.80969 80.3204 5.0783C79.0518 6.34709 79.0518 8.41129 80.3204 9.6799C81.589 10.9485 83.6532 10.9485 84.9218 9.6799C86.1907 8.41112 86.1906 6.34692 84.922 5.0783Z" fill="#FFDD40"/>
<path d="M28.3994 67.1585L22.4991 61.2582C21.693 60.452 21.693 59.1449 22.4991 58.3388C23.3053 57.5325 24.6124 57.5325 25.4185 58.3388L31.319 64.2393C32.1251 65.0454 32.1251 66.3525 31.319 67.1586C30.5128 67.9648 29.2057 67.9648 28.3994 67.1585Z" fill="#FEE884"/>
<path d="M21.0558 74.5018L15.1554 68.6014C14.3492 67.7952 14.3492 66.4881 15.1554 65.682C15.9615 64.8759 17.2686 64.8759 18.0748 65.682L23.9752 71.5824C24.7813 72.3886 24.7813 73.6957 23.9752 74.5018C23.1689 75.3081 21.862 75.3081 21.0558 74.5018Z" fill="#FEE884"/>
<path d="M41.1867 54.3719L35.2862 48.4715C34.4801 47.6654 34.4801 46.3582 35.2862 45.5521C36.0924 44.746 37.3995 44.746 38.2056 45.5521L44.1061 51.4526C44.9122 52.2587 44.9122 53.5658 44.1061 54.3719C43.2999 55.1781 41.993 55.1781 41.1867 54.3719Z" fill="#FEE884"/>
<path d="M38.6382 49.0036C39.3162 48.3256 40.3094 48.1552 41.1459 48.4922L38.2056 45.5519C37.3993 44.7458 36.0924 44.7458 35.2862 45.5519C34.4801 46.3581 34.4801 47.6652 35.2862 48.4713L38.0337 51.2186C37.8377 50.4516 38.0376 49.6042 38.6382 49.0036Z" fill="#FFDD40"/>
<path d="M25.8511 61.7902C26.5291 61.1123 27.5223 60.9421 28.3588 61.2789L25.4185 58.3386C24.6122 57.5325 23.3053 57.5325 22.4991 58.3386C21.693 59.1447 21.693 60.4518 22.4991 61.258L25.2466 64.0053C25.0508 63.2381 25.2505 62.3907 25.8511 61.7902Z" fill="#FFDD40"/>
<path d="M18.5073 69.1337C19.1853 68.4557 20.1785 68.2855 21.015 68.6223L18.0749 65.6821C17.2686 64.8759 15.9616 64.8759 15.1555 65.6821C14.3492 66.4882 14.3492 67.7953 15.1555 68.6014L17.903 71.3487C17.707 70.5816 17.9068 69.7343 18.5073 69.1337Z" fill="#FFDD40"/>
<path d="M0 46.9332C0 50.7359 0.494473 54.4228 1.42014 57.9345C3.13928 58.5164 5.01803 58.5798 6.8298 58.3749C10.6506 57.9428 14.5888 56.0939 16.2775 52.6395C17.3781 50.3879 17.4196 47.6942 18.73 45.5579C20.9774 41.8948 26.183 41.0082 28.5947 37.4513C31.3787 33.3452 29.2841 27.7286 30.3441 22.8822C31.2803 18.6014 34.695 14.9446 34.637 10.5631C34.6106 8.57233 33.75 6.6528 32.3942 5.20032C13.7716 9.94852 0 26.8321 0 46.9332H0Z" fill="#7255CE"/>
<path d="M43.0675 90C64.4308 90 82.1576 74.444 85.5468 54.0423C82.5125 53.6579 79.3729 54.0806 76.5797 55.331C74.161 56.4136 71.9945 58.0732 69.4518 58.8199C63.8268 60.4717 57.3109 57.4096 52.1036 60.1025C47.6844 62.3879 45.9653 67.9744 41.8861 70.8224C40.2083 71.9938 38.2176 72.6359 36.4719 73.7038C34.7262 74.7717 33.1436 76.4933 33.1426 78.5397C33.1421 79.5752 33.5464 80.5612 33.9032 81.5333C34.806 83.9926 35.426 86.7092 35.0655 89.2564C37.6582 89.7442 40.3329 90 43.0675 90Z" fill="#7255CE"/>
<path d="M65.9652 6.65927C62.5928 4.62478 58.6205 3.97914 54.7804 4.84134C53.8939 5.0405 53.0393 5.31824 52.2201 5.66295C52.1569 5.75681 50.5724 8.16888 53.7189 9.50974C53.7192 9.50974 53.7194 9.50992 53.7196 9.5101C54.3459 9.23851 55.0028 9.02283 55.685 8.86972C58.4822 8.24166 61.3757 8.71222 63.8326 10.1944C65.5859 11.2524 66.152 13.5394 65.0942 15.2928C64.4343 16.3865 63.0075 16.7396 61.9136 16.0797C61.2033 15.651 60.7742 14.8697 60.7942 14.0402C60.8218 12.9004 59.9201 11.9542 58.7801 11.9267C57.6404 11.8993 56.6943 12.8011 56.6669 13.9408C56.6112 16.2485 57.8045 18.4229 59.781 19.6149C62.824 21.4507 66.7935 20.4685 68.6295 17.4255C70.8628 13.723 69.668 8.89275 65.9652 6.65927Z" fill="#FEE884"/>
<path d="M87.8407 2.15877C86.4014 0.719648 84.5109 0 82.6204 0C82.6204 0 80.0116 2.16598 82.6204 4.12682C83.4536 4.12682 84.2868 4.44393 84.9212 5.07832C86.1898 6.34693 86.1898 8.41113 84.9212 9.67975C84.9212 9.67975 84.6074 12.5991 87.8407 12.5991C90.7192 9.7207 90.7192 5.03719 87.8407 2.15877Z" fill="#FEE884"/>
</g>
<defs>
<clipPath id="clip0_669_236">
<rect width="90" height="90" fill="white"/>
</clipPath>
</defs>
</svg>
