<?xml version="1.0" encoding="UTF-8"?> <svg xmlns="http://www.w3.org/2000/svg" width="24" height="24" viewBox="0 0 24 24" fill="none"> <path d="M19.338 7.79995C19.3842 5.90764 18.5534 4.01533 17.215 2.63072C16.5227 1.93841 15.738 1.38456 14.8611 1.01533C13.9842 0.646102 13.015 0.461487 12.0457 0.461487C11.0765 0.461487 10.1073 0.646102 9.23036 1.01533C8.35344 1.38456 7.52267 1.93841 6.83036 2.63072C5.44575 3.96918 4.66113 5.90764 4.66113 7.79995C4.66113 8.76918 4.84575 9.73841 5.21498 10.6153C5.58421 11.4923 6.13805 12.323 6.73805 12.9692C7.79959 14.2153 8.58421 15.7384 8.95344 17.3538C8.86113 17.3538 8.72267 17.3538 8.58421 17.3538C8.07651 17.4461 7.70728 17.9999 7.75344 18.5076C7.75344 18.7384 7.8919 19.0153 8.07651 19.1999C7.84574 19.4307 7.70728 19.8461 7.79959 20.1692C7.84574 20.4461 7.98421 20.6769 8.21498 20.8615C8.30728 20.9538 8.44574 20.9999 8.58421 21.0461C8.63036 21.0461 8.72267 21.0923 8.76882 21.0923H9.27651C9.32267 21.323 9.36882 21.5538 9.46113 21.7384C9.59959 22.0615 9.83036 22.3846 10.0611 22.6615C10.5688 23.1692 11.3534 23.4923 12.0919 23.4923C12.8304 23.4923 13.5688 23.1692 14.1227 22.6615C14.538 22.2461 14.815 21.6923 14.9073 21.0923H15.0457H15.3227C15.738 21.0923 16.1534 20.8153 16.338 20.4461C16.4765 20.2153 16.4765 19.8923 16.4304 19.6615C16.3842 19.4769 16.2919 19.3384 16.1534 19.1999C16.3842 18.923 16.5227 18.5999 16.4304 18.2307C16.338 17.6769 15.8304 17.2615 15.3227 17.3076H15.0457C15.415 15.6461 16.1996 14.0769 17.3534 12.8307C18.5534 11.5846 19.3842 9.69226 19.338 7.79995V7.79995ZM13.4765 22.0615C13.0611 22.3846 12.5534 22.6153 12.0457 22.5692C11.538 22.5692 11.0304 22.3846 10.615 22.0153C10.3381 21.7846 10.1073 21.4615 9.96882 21.0923H10.015L12.2304 21.1384H14.1688C13.9842 21.5076 13.7534 21.8307 13.4765 22.0615ZM15.2304 20.3076C15.1842 20.3076 14.3534 20.2615 14.3996 20.2615L12.1842 20.2153L9.96882 20.2615L8.90728 20.3076H8.81497H8.76882C8.72267 20.3076 8.67651 20.2615 8.63036 20.2615C8.53805 20.2153 8.4919 20.123 8.44574 20.0307C8.39959 19.8461 8.44574 19.6615 8.63036 19.5692C8.67651 19.5692 8.76882 19.5692 8.81497 19.6153L9.92267 19.6615L12.138 19.7076L14.3534 19.6615C14.3996 19.6615 15.2304 19.6153 15.1842 19.6153H15.2304C15.3688 19.6153 15.3688 19.6153 15.415 19.5692C15.5073 19.6615 15.5996 19.7538 15.5996 19.8461C15.6457 20.0769 15.4611 20.3076 15.2304 20.3076V20.3076ZM15.2304 17.9076C15.4611 17.9538 15.6457 18.1384 15.6457 18.323C15.6457 18.5538 15.4611 18.7384 15.2765 18.7384H15.1842C15.138 18.7384 14.3073 18.6923 14.3534 18.6923L12.138 18.6461L9.92267 18.6923L8.81497 18.7384C8.63036 18.7384 8.44574 18.5999 8.39959 18.4153C8.35344 18.2307 8.44574 17.9999 8.67651 17.9076C8.76882 17.8615 8.95344 17.8615 9.13805 17.8615L9.6919 17.8153C9.92267 17.8153 10.1534 17.7692 10.3842 17.7692L12.5996 17.6769C13.1073 17.723 13.5688 17.7692 14.0765 17.8153L15.2304 17.9076ZM14.9073 17.3538L14.1227 17.3999C13.615 17.4461 13.1534 17.4923 12.6457 17.5384L10.4304 17.4461C10.1996 17.4461 9.96882 17.3999 9.73805 17.3999L9.36882 17.3538C9.0919 15.5999 8.35344 13.8923 7.24575 12.5076C6.04575 11.1692 5.44575 9.50764 5.4919 7.79995C5.53805 6.09226 6.27652 4.43072 7.47651 3.23072C8.67651 2.07687 10.3381 1.38456 12.0457 1.38456C13.7534 1.38456 15.415 2.07687 16.6611 3.23072C17.9073 4.43072 18.6457 6.09226 18.6919 7.79995C18.738 8.67687 18.5996 9.55379 18.2765 10.3384C17.9996 11.1692 17.4919 11.9076 16.938 12.5999C15.8304 13.9846 15.138 15.6461 14.9073 17.3538V17.3538Z" fill="#C0A19B"></path> <path d="M8.07683 4.3383C7.7076 4.75368 7.38452 5.26137 7.24606 5.81522C7.06144 6.36907 7.01529 6.92292 7.15375 7.47676C7.38452 6.96907 7.61529 6.55368 7.89221 6.1383C8.39991 5.35368 8.99991 4.66137 9.78452 4.01522C10.1538 3.69214 10.5691 3.46137 11.0307 3.13829C10.1076 2.95368 8.9076 3.36906 8.07683 4.3383V4.3383Z" fill="#C0A19B"></path> </svg> 