<svg width="222" height="31" viewBox="0 0 222 31" fill="none" xmlns="http://www.w3.org/2000/svg">
<path fill-rule="evenodd" clip-rule="evenodd" d="M0 27.9756L2.06501 6.41111L0.275008 3.19274L5.20873 0L13.612 15.7109L20.2607 1.36068H24.3776L27.0732 27.9756H21.0111L19.8308 15.5119L15.0988 25.1696H11.9932L7.22258 16.1214L6.19457 27.9756H0Z" fill="#353535"/>
<path fill-rule="evenodd" clip-rule="evenodd" d="M166.049 28.8779L168.141 6.68082L168.721 1.80469L173.226 1.80478L179.712 15.4937L185.954 1.80472H190.424L193.122 28.8779H186.594L185.517 17.3234L181.286 26.0987H177.907L173.644 17.8828L172.706 28.8779H166.049Z" fill="#8F86FF"/>
<path fill-rule="evenodd" clip-rule="evenodd" d="M55.0488 27.9758L57.2974 7.08382L57.8923 2.70752L62.3302 2.7076L69.6337 16.2033L76.6615 2.70754H81.0506L83.9269 27.9758H77.4608L76.2015 16.1445L71.1526 25.3128H67.8433L62.753 16.7231L61.6562 27.9758H55.0488Z" fill="#353535"/>
<path fill-rule="evenodd" clip-rule="evenodd" d="M171.661 2.70761L167.005 2.70752L166.406 7.42111L164.244 28.8783H171.123L172.093 18.2497L176.498 26.1917H179.989L184.362 17.709L185.474 28.8783H192.22L189.432 2.70755H184.813L178.363 15.9402L171.661 2.70761ZM185.621 3.99463L178.385 18.8398L170.866 3.99468L168.143 3.99463L167.689 7.56641L165.671 27.5912H169.944L171.188 13.9579L177.259 24.9046H179.201L185.214 13.2391L186.644 27.5912H190.784L188.27 3.99463H185.621Z" fill="black"/>
<path fill-rule="evenodd" clip-rule="evenodd" d="M32.0596 9.60618L29.7837 4.65126C31.6803 3.31422 36.5736 0.695187 40.9737 0.915405C45.3739 1.13562 47.3084 2.92097 47.7257 3.78611C48.5096 4.5726 49.7361 7.79906 49.7361 14.4431C49.7361 25.2686 55.0486 23.0159 55.0486 23.0159L54.5074 27.4389C54.5074 27.4389 52.3436 28.4362 50.6983 28.4362C49.1623 28.4362 46.4663 28.018 44.9187 23.0159C44.0462 25.1919 41.0496 29.3393 36.0425 28.836C31.0355 28.3326 29.7837 24.2743 29.7837 22.3081C29.6699 18.8868 32.3479 11.7454 43.9704 10.55C44.0842 8.6886 43.1434 5.26472 38.4702 6.46019C34.5249 7.46943 32.8857 8.89051 32.1737 9.50774C32.1327 9.54329 32.0948 9.57619 32.0596 9.60618ZM43.9327 14.9936C44.0591 16.2782 43.8189 19.5317 42.1498 21.3249C40.2912 23.3219 37.8064 23.8596 36.8014 22.8979C35.8151 21.9541 35.3979 20.0272 36.8014 18.2969C38.2049 16.5666 41.7705 14.9936 43.9327 14.9936Z" fill="#353535"/>
<path fill-rule="evenodd" clip-rule="evenodd" d="M34.5357 2.19327C36.5183 1.40596 38.8243 0.805036 41.0195 0.915455C45.3178 1.13166 47.308 2.87011 47.7951 3.82991C48.0072 4.05419 48.2302 4.41757 48.4468 4.91738C48.674 5.44144 48.9 6.12891 49.1005 6.99311C49.5015 8.72167 49.8028 11.168 49.8028 14.4503C49.8028 19.7542 51.0992 21.753 52.2953 22.4681C52.8977 22.8282 53.5013 22.881 53.9586 22.8422C54.1872 22.8228 54.3774 22.7806 54.5095 22.7437C54.5754 22.7252 54.6266 22.7081 54.6605 22.696C54.6774 22.6899 54.69 22.6851 54.6979 22.682L54.7062 22.6787L54.7073 22.6782L54.7078 22.6781L55.0486 22.5328L54.4571 27.3913L54.3463 27.4426L54.2589 27.2378C54.3463 27.4426 54.3464 27.4426 54.3463 27.4426L54.3457 27.4429L54.3393 27.4458L54.3203 27.4544C54.3038 27.4619 54.2796 27.4728 54.2483 27.4865C54.1859 27.5139 54.0953 27.5529 53.9817 27.5996C53.7547 27.693 53.4351 27.8173 53.0643 27.9418C52.3277 28.189 51.3695 28.4432 50.5298 28.4432C49.758 28.4432 48.6732 28.3377 47.5858 27.5848C46.5779 26.887 45.5916 25.65 44.8411 23.4882C44.3341 24.5338 43.4445 25.8447 42.1797 26.9119C40.6918 28.1673 38.6784 29.09 36.1606 28.8356C33.6493 28.5818 32.0617 27.4273 31.106 26.0734C30.1573 24.7294 29.8395 23.2014 29.8387 22.1931C29.7822 20.4514 30.4304 17.7976 32.5317 15.4308C34.6151 13.0843 38.1137 11.0339 43.7357 10.4163C43.7516 9.55446 43.5326 8.43193 42.8472 7.62833C42.1266 6.78342 40.8436 6.23853 38.6096 6.81288C34.7954 7.79355 33.2177 9.16817 32.5364 9.76181L32.5317 9.76592C32.4918 9.80072 32.4539 9.83375 32.4188 9.86386L32.2062 10.0463L29.7803 4.73809L29.9329 4.62997C30.8749 3.96249 32.5517 2.98119 34.5357 2.19327ZM54.061 27.0822L54.5337 23.1997C54.3904 23.2354 54.2065 23.2709 53.9936 23.289C53.4757 23.3329 52.779 23.2741 52.0812 22.8569C50.6767 22.0172 49.3726 19.7983 49.3726 14.4503C49.3726 11.195 49.0736 8.78512 48.6823 7.09843C48.4867 6.255 48.2686 5.59508 48.0548 5.10192C47.8393 4.60504 47.6339 4.29046 47.4699 4.1251L47.4435 4.0985L47.4271 4.06427C47.067 3.31386 45.2651 1.57782 40.9988 1.36321C38.8861 1.25694 36.6429 1.8362 34.689 2.61216C32.8411 3.34598 31.2668 4.24972 30.328 4.89389L32.3572 9.3339C33.1215 8.67296 34.7789 7.33606 38.5066 6.37766C40.8479 5.77569 42.313 6.32715 43.1688 7.33055C44.0085 8.31506 44.2154 9.68305 44.1576 10.6337L44.1461 10.8237L43.9642 10.8426C38.3165 11.4264 34.869 13.4584 32.8475 15.7353C30.8226 18.0159 30.215 20.5566 30.2688 22.1815L30.2689 22.1853V22.1892C30.2689 23.1156 30.5643 24.5494 31.4526 25.8078C32.3352 27.0582 33.8115 28.1479 36.2021 28.3894C38.5864 28.6303 40.4909 27.7601 41.9089 26.5636C43.3312 25.3635 44.2578 23.8397 44.6727 22.7997L44.8974 22.2364L45.0762 22.8172C45.8231 25.2437 46.8376 26.5286 47.8239 27.2114C48.8109 27.8948 49.7978 27.995 50.5298 27.995C51.3008 27.995 52.2071 27.7585 52.9324 27.5151C53.2926 27.3942 53.6033 27.2733 53.8238 27.1826C53.9222 27.1422 54.0025 27.1078 54.061 27.0822ZM40.0501 15.7735C41.3739 15.1669 42.8066 14.7678 43.906 14.7678H44.1003L44.12 14.9692C44.1844 15.6264 44.1547 16.7666 43.9026 17.9671C43.6509 19.1658 43.1714 20.453 42.3154 21.3774C41.3802 22.3873 40.283 23.0335 39.2831 23.3043C38.2949 23.5719 37.3494 23.4834 36.7784 22.9342C35.7293 21.9252 35.3109 19.8932 36.7597 18.098C37.4771 17.2091 38.7274 16.3795 40.0501 15.7735ZM40.2232 16.1838C38.9278 16.7773 37.7456 17.5729 37.089 18.3865C35.7897 19.9965 36.1882 21.7565 37.0702 22.6048C37.4832 23.002 38.2459 23.122 39.1749 22.8704C40.0923 22.622 41.1213 22.0212 42.0058 21.0661C42.7838 20.226 43.2389 19.0303 43.4823 17.8713C43.6999 16.835 43.7436 15.8508 43.7077 15.2206C42.7145 15.2646 41.4352 15.6285 40.2232 16.1838Z" fill="#353535"/>
<path fill-rule="evenodd" clip-rule="evenodd" d="M89.0416 2.19129C91.1751 1.40515 93.6564 0.805195 96.0182 0.915434C100.644 1.13134 102.784 2.86742 103.308 3.82446C103.762 4.26719 104.362 5.29311 104.819 6.98049C105.288 8.71116 105.612 11.1583 105.468 14.438C105.378 16.4733 105.371 18.0672 105.463 19.3149C105.555 20.565 105.746 21.451 106.042 22.0801C106.333 22.7001 106.726 23.0706 107.24 23.2971C107.764 23.5286 108.43 23.6174 109.282 23.6365C110.626 23.6667 111.415 23.3949 111.86 23.0753C112.266 22.7833 112.394 22.4456 112.405 22.2238C112.073 21.7346 111.69 20.9548 111.575 20.1228C111.454 19.2515 111.625 18.2969 112.485 17.5842C113.327 16.8863 114.278 16.7424 115.113 16.843C115.941 16.9429 116.663 17.2837 117.082 17.572L117.094 17.5798L117.104 17.589C117.982 18.3661 119.075 20.7751 117.154 24.4588C116.178 26.3295 114.503 27.4514 112.824 28.0945C111.153 28.7347 109.461 28.9077 108.399 28.8696C106.341 28.9808 101.943 28.0263 100.135 23.44C99.5906 24.4859 98.6313 25.8009 97.2649 26.8707C95.6642 28.124 93.4981 29.045 90.7895 28.791C88.0877 28.5377 86.38 27.3852 85.352 26.0339C84.3315 24.6924 83.9896 23.1671 83.9888 22.1607C83.9279 20.4223 84.6252 17.7728 86.8861 15.4099C89.128 13.0669 92.8933 11.0193 98.9448 10.403C98.9625 9.54143 98.727 8.41801 97.9878 7.61385C97.2112 6.76897 95.8291 6.22478 93.4241 6.79854C89.3184 7.77804 87.6201 9.15111 86.8866 9.74413L86.8816 9.74818C86.8387 9.78287 86.7978 9.81597 86.7601 9.84597L86.5346 10.0256L83.9268 4.73076L84.0887 4.62432C85.1023 3.95789 86.9066 2.97805 89.0416 2.19129ZM95.1601 16.1568C93.7657 16.7496 92.4929 17.5443 91.7857 18.3573C90.3863 19.9664 90.8154 21.726 91.7659 22.5743C92.2115 22.9719 93.0337 23.0916 94.034 22.8402C95.0219 22.592 96.1299 21.9917 97.0821 21.0375C97.92 20.198 98.41 19.0033 98.6721 17.8455C98.9067 16.8087 98.9535 15.824 98.9145 15.1945C97.8446 15.2379 96.4659 15.6016 95.1601 16.1568Z" fill="#353535"/>
<path fill-rule="evenodd" clip-rule="evenodd" d="M151.61 29.7803C155.072 29.7803 158.255 28.5624 160.567 26.157C162.878 23.754 164.244 20.2463 164.244 15.7925C164.244 11.611 162.971 8.11278 160.719 5.64665C158.459 3.17188 155.273 1.80469 151.61 1.80469C147.967 1.80469 144.777 3.07167 142.507 5.51079C140.244 7.94147 138.976 11.4471 138.976 15.7925C138.976 20.132 140.211 23.6384 142.46 26.0717C144.719 28.5155 147.911 29.7803 151.61 29.7803ZM157.255 15.7926C157.255 18.0914 156.735 20.1483 155.767 21.5985C154.824 23.0128 153.459 23.8591 151.61 23.8591C149.771 23.8591 148.404 22.9946 147.455 21.5608C146.484 20.0937 145.965 18.034 145.965 15.7926C145.965 13.5541 146.493 11.4942 147.469 10.026C148.425 8.58878 149.793 7.72604 151.61 7.72604C153.411 7.72604 154.783 8.62139 155.748 10.0939C156.73 11.5927 157.255 13.6574 157.255 15.7926Z" fill="#EA8FE1"/>
<path fill-rule="evenodd" clip-rule="evenodd" d="M138.975 0.902344V8.42031H130.299V28.878H122.335V8.42031H113.707V0.902344H138.975Z" fill="#8F86FF"/>
<path fill-rule="evenodd" clip-rule="evenodd" d="M149.805 2.22318C146.505 2.22318 143.656 3.44861 141.634 5.77502C139.615 8.09883 138.445 11.4938 138.445 15.7926C138.445 20.0896 139.586 23.4848 141.591 25.8094C143.6 28.1372 146.45 29.362 149.805 29.362C152.934 29.362 155.781 28.1856 157.845 25.8866C159.907 23.5883 161.165 20.1927 161.165 15.7926C161.165 11.6665 159.994 8.27382 157.977 5.90852C155.959 3.54055 153.111 2.22318 149.805 2.22318ZM140.688 4.89096C142.979 2.25472 146.187 0.902344 149.805 0.902344C153.456 0.902344 156.659 2.36666 158.932 5.03387C161.193 7.68618 162.439 11.4109 162.439 15.7926C162.439 20.4543 161.103 24.1954 158.778 26.7863C156.449 29.3812 153.251 30.6828 149.805 30.6828C146.137 30.6828 142.923 29.3342 140.642 26.6899C138.376 24.0638 137.171 20.3249 137.171 15.7926C137.171 11.2502 138.41 7.51261 140.688 4.89096ZM145.337 9.56895C146.343 7.94918 147.83 6.92615 149.806 6.92615C151.776 6.92615 153.265 7.99367 154.273 9.64175L153.735 9.9954L154.273 9.64176C155.285 11.2973 155.803 13.5287 155.803 15.7927C155.803 18.2146 155.293 20.4436 154.288 22.0573C153.29 23.6603 151.804 24.6592 149.806 24.6592C147.81 24.6592 146.324 23.6356 145.324 22.0169C144.318 20.3884 143.808 18.1585 143.808 15.7927C143.808 13.4277 144.327 11.1978 145.337 9.56895ZM149.806 8.24698C148.33 8.24698 147.218 8.97927 146.409 10.2836C145.566 11.6421 145.082 13.6033 145.082 15.7927C145.082 17.9873 145.559 19.9481 146.396 21.3045C147.199 22.603 148.308 23.3383 149.806 23.3383C151.318 23.3383 152.424 22.6153 153.218 21.3408C154.051 20.0039 154.529 18.048 154.529 15.7927C154.529 13.7123 154.049 11.7429 153.197 10.349C152.372 9.00115 151.254 8.24698 149.806 8.24698Z" fill="black"/>
<path fill-rule="evenodd" clip-rule="evenodd" d="M127.187 7.10895H135.864V2.2137H113.209V7.10895H121.837V27.5666H127.187V7.10895ZM128.494 28.878H120.53V8.42031H111.902V0.902344H137.171V8.42031H128.494V28.878Z" fill="black"/>
<path fill-rule="evenodd" clip-rule="evenodd" d="M205.923 1.80469H211.004L222 28.8779H214.499L212.353 22.3215H204.705L202.491 28.8779H194.927C199.221 17.3701 201.629 13.3124 205.923 1.80469ZM206.915 15.7803H210.212L208.589 10.8219L206.915 15.7803Z" fill="#EA8FE1"/>
<path fill-rule="evenodd" clip-rule="evenodd" d="M203.572 22.3225H210.784L213.347 28.8779H221.098L209.735 1.80469H204.485L193.122 28.8779H200.938L203.572 22.3225ZM200.032 27.5679L202.666 21.0125H211.699L214.262 27.5679H219.107L208.844 3.11468H205.376L195.113 27.5679H200.032ZM210.764 17.7775H203.644L207.26 7.4181L210.764 17.7775ZM208.917 16.4675L207.24 11.5098L205.509 16.4675H208.917Z" fill="black"/>
</svg>
