<svg width="222" height="32" viewBox="0 0 222 32" fill="none" xmlns="http://www.w3.org/2000/svg">
<path fill-rule="evenodd" clip-rule="evenodd" d="M0 27.9756L2.06501 6.41111L0.275008 3.19274L5.20873 0L13.612 15.7109L20.2607 1.36068H24.3776L27.0732 27.9756H21.0111L19.8308 15.5119L15.0988 25.1696H11.9932L7.22258 16.1214L6.19457 27.9756H0Z" fill="white"/>
<path fill-rule="evenodd" clip-rule="evenodd" d="M166.049 28.878L168.141 6.68092L168.721 1.80479L173.226 1.80488L179.713 15.4938L185.954 1.80482H190.424L193.122 28.878H186.595L185.518 17.3235L181.287 26.0988H177.908L173.645 17.8829L172.706 28.878H166.049Z" fill="#A4ADFF"/>
<path fill-rule="evenodd" clip-rule="evenodd" d="M55.0492 27.9757L57.2977 7.08373L57.8927 2.70743L62.3305 2.70751L69.6341 16.2032L76.6619 2.70745H81.0509L83.9272 27.9757H77.4612L76.2019 16.1444L71.1529 25.3128H67.8436L62.7534 16.723L61.6566 27.9757H55.0492Z" fill="white"/>
<path fill-rule="evenodd" clip-rule="evenodd" d="M171.66 3.70755L167.005 3.70746L166.405 8.42105L164.244 29.8782H171.123L172.093 19.2496L176.498 27.1917H179.989L184.361 18.7089L185.474 29.8782H192.22L189.431 3.70749H184.812L178.363 16.9402L171.66 3.70755ZM185.621 4.99457L178.385 19.8398L170.866 4.99462L168.143 4.99457L167.688 8.56635L165.671 28.5911H169.944L171.188 14.9579L177.259 25.9046H179.201L185.214 14.2391L186.643 28.5911H190.784L188.27 4.99457H185.621Z" fill="black"/>
<path fill-rule="evenodd" clip-rule="evenodd" d="M32.0595 9.60622L29.7836 4.6513C31.6802 3.31426 36.5735 0.695233 40.9736 0.915451C45.3738 1.13567 47.3083 2.92101 47.7256 3.78615C48.5095 4.57265 49.736 7.79911 49.736 14.4432C49.736 25.2686 55.0484 23.016 55.0484 23.016L54.5073 27.4389C54.5073 27.4389 52.3434 28.4362 50.6982 28.4362C49.1622 28.4362 46.4662 28.0181 44.9186 23.016C44.0461 25.1919 41.0495 29.3394 36.0424 28.836C31.0353 28.3327 29.7836 24.2744 29.7836 22.3081C29.6698 18.8869 32.3478 11.7455 43.9703 10.55C44.084 8.68864 43.1433 5.26477 38.4701 6.46024C34.5248 7.46948 32.8856 8.89056 32.1736 9.50778C32.1326 9.54334 32.0946 9.57623 32.0595 9.60622ZM43.9325 14.9936C44.059 16.2782 43.8187 19.5317 42.1497 21.3249C40.291 23.3219 37.8062 23.8596 36.8013 22.8979C35.815 21.9541 35.3978 20.0272 36.8013 18.2969C38.2048 16.5666 41.7704 14.9936 43.9325 14.9936Z" fill="white"/>
<path fill-rule="evenodd" clip-rule="evenodd" d="M34.5356 2.19332C36.5182 1.40601 38.8242 0.805081 41.0194 0.915501C45.3176 1.13171 47.3079 2.87015 47.795 3.82995C48.007 4.05423 48.23 4.41761 48.4467 4.91742C48.6739 5.44148 48.8999 6.12896 49.1004 6.99315C49.5014 8.72171 49.8027 11.168 49.8027 14.4503C49.8027 19.7542 51.0991 21.753 52.2952 22.4681C52.8976 22.8283 53.5012 22.881 53.9585 22.8422C54.1871 22.8229 54.3772 22.7807 54.5094 22.7437C54.5753 22.7253 54.6265 22.7082 54.6603 22.696C54.6773 22.69 54.6899 22.6852 54.6978 22.6821L54.7061 22.6787L54.7072 22.6783L54.7076 22.6781L55.0484 22.5329L54.457 27.3913L54.3462 27.4426L54.2588 27.2378C54.3462 27.4426 54.3462 27.4426 54.3462 27.4426L54.3456 27.4429L54.3392 27.4459L54.3202 27.4545C54.3037 27.462 54.2795 27.4728 54.2482 27.4865C54.1858 27.514 54.0952 27.553 53.9816 27.5997C53.7546 27.693 53.435 27.8174 53.0642 27.9418C52.3276 28.1891 51.3694 28.4433 50.5297 28.4433C49.7579 28.4433 48.6731 28.3377 47.5857 27.5849C46.5777 26.8871 45.5915 25.6501 44.841 23.4882C44.334 24.5339 43.4444 25.8447 42.1796 26.912C40.6917 28.1674 38.6782 29.09 36.1605 28.8356C33.6491 28.5819 32.0616 27.4273 31.1059 26.0735C30.1572 24.7295 29.8394 23.2015 29.8386 22.1931C29.782 20.4515 30.4303 17.7976 32.5316 15.4309C34.6149 13.0843 38.1136 11.034 43.7356 10.4163C43.7515 9.55451 43.5325 8.43198 42.8471 7.62838C42.1265 6.78347 40.8434 6.23857 38.6095 6.81293C34.7952 7.79359 33.2176 9.16821 32.5363 9.76185L32.5316 9.76597C32.4916 9.80077 32.4537 9.8338 32.4187 9.8639L32.2061 10.0463L29.7802 4.73814L29.9327 4.63002C30.8748 3.96254 32.5515 2.98123 34.5356 2.19332ZM54.0609 27.0823L54.5336 23.1998C54.3902 23.2355 54.2063 23.271 53.9934 23.289C53.4756 23.333 52.7789 23.2741 52.0811 22.8569C50.6766 22.0173 49.3725 19.7984 49.3725 14.4503C49.3725 11.195 49.0735 8.78516 48.6822 7.09847C48.4865 6.25504 48.2684 5.59513 48.0546 5.10196C47.8392 4.60508 47.6337 4.2905 47.4698 4.12515L47.4434 4.09854L47.4269 4.06432C47.0668 3.31391 45.265 1.57786 40.9986 1.36326C38.886 1.25699 36.6428 1.83625 34.6888 2.6122C32.841 3.34602 31.2667 4.24976 30.3279 4.89393L32.357 9.33394C33.1213 8.67301 34.7788 7.33611 38.5064 6.3777C40.8478 5.77574 42.3129 6.32719 43.1687 7.33059C44.0084 8.31511 44.2153 9.68309 44.1575 10.6337L44.1459 10.8238L43.9641 10.8426C38.3164 11.4264 34.8689 13.4585 32.8474 15.7353C30.8225 18.016 30.2149 20.5567 30.2687 22.1815L30.2688 22.1854V22.1892C30.2688 23.1157 30.5642 24.5495 31.4525 25.8079C32.3351 27.0582 33.8113 28.1479 36.202 28.3894C38.5863 28.6303 40.4907 27.7601 41.9088 26.5636C43.331 25.3636 44.2577 23.8397 44.6726 22.7997L44.8973 22.2365L45.0761 22.8173C45.823 25.2437 46.8374 26.5286 47.8238 27.2115C48.8108 27.8948 49.7976 27.995 50.5297 27.995C51.3006 27.995 52.207 27.7586 52.9323 27.5151C53.2925 27.3943 53.6032 27.2733 53.8237 27.1827C53.9221 27.1422 54.0023 27.1079 54.0609 27.0823ZM40.0499 15.7735C41.3737 15.167 42.8065 14.7678 43.9059 14.7678H44.1002L44.1199 14.9692C44.1843 15.6264 44.1546 16.7666 43.9025 17.9671C43.6508 19.1658 43.1713 20.453 42.3153 21.3774C41.3801 22.3873 40.2829 23.0336 39.283 23.3043C38.2948 23.572 37.3493 23.4834 36.7783 22.9343C35.7292 21.9252 35.3108 19.8932 36.7596 18.0981C37.477 17.2091 38.7273 16.3795 40.0499 15.7735ZM40.2231 16.1839C38.9276 16.7774 37.7455 17.5729 37.0889 18.3866C35.7896 19.9965 36.1881 21.7566 37.0701 22.6049C37.483 23.002 38.2458 23.1221 39.1748 22.8705C40.0922 22.622 41.1212 22.0213 42.0057 21.0662C42.7836 20.2261 43.2388 19.0304 43.4822 17.8713C43.6998 16.8351 43.7435 15.8508 43.7076 15.2206C42.7144 15.2647 41.4351 15.6286 40.2231 16.1839Z" fill="white"/>
<path fill-rule="evenodd" clip-rule="evenodd" d="M89.0416 2.19134C91.1751 1.40519 93.6564 0.80524 96.0182 0.91548C100.644 1.13138 102.784 2.86746 103.308 3.82451C103.762 4.26723 104.362 5.29315 104.819 6.98053C105.288 8.71121 105.612 11.1584 105.468 14.438C105.378 16.4734 105.371 18.0673 105.463 19.3149C105.555 20.565 105.746 21.4511 106.042 22.0801C106.333 22.7002 106.726 23.0706 107.24 23.2972C107.764 23.5286 108.43 23.6174 109.282 23.6366C110.626 23.6668 111.415 23.3949 111.86 23.0753C112.266 22.7833 112.394 22.4457 112.405 22.2239C112.073 21.7346 111.69 20.9549 111.575 20.1228C111.454 19.2515 111.625 18.2969 112.485 17.5842C113.327 16.8863 114.278 16.7424 115.113 16.8431C115.941 16.9429 116.663 17.2837 117.082 17.572L117.094 17.5799L117.104 17.589C117.982 18.3662 119.075 20.7751 117.154 24.4589C116.178 26.3296 114.503 27.4515 112.824 28.0946C111.153 28.7347 109.461 28.9077 108.399 28.8696C106.341 28.9809 101.943 28.0263 100.135 23.44C99.5906 24.486 98.6313 25.801 97.2649 26.8707C95.6642 28.124 93.4981 29.045 90.7895 28.7911C88.0877 28.5378 86.38 27.3852 85.352 26.034C84.3315 24.6924 83.9896 23.1671 83.9888 22.1607C83.9279 20.4223 84.6252 17.7729 86.8861 15.41C89.128 13.067 92.8933 11.0194 98.9448 10.403C98.9625 9.54147 98.727 8.41805 97.9878 7.61389C97.2112 6.76902 95.8291 6.22482 93.4241 6.79859C89.3184 7.77809 87.6201 9.15116 86.8866 9.74418L86.8816 9.74823C86.8387 9.78291 86.7978 9.81602 86.7601 9.84602L86.5346 10.0256L83.9268 4.73081L84.0887 4.62437C85.1023 3.95793 86.9066 2.97809 89.0416 2.19134ZM95.1601 16.1568C93.7657 16.7496 92.4929 17.5443 91.7857 18.3574C90.3863 19.9664 90.8154 21.726 91.7659 22.5743C92.2115 22.972 93.0337 23.0916 94.034 22.8403C95.0219 22.592 96.1299 21.9917 97.0821 21.0376C97.92 20.198 98.41 19.0033 98.6721 17.8455C98.9067 16.8088 98.9535 15.824 98.9145 15.1945C97.8446 15.2379 96.4659 15.6017 95.1601 16.1568Z" fill="white"/>
<path fill-rule="evenodd" clip-rule="evenodd" d="M151.61 29.7804C155.072 29.7804 158.255 28.5625 160.568 26.1571C162.878 23.7541 164.244 20.2464 164.244 15.7926C164.244 11.6111 162.971 8.11288 160.719 5.64675C158.459 3.17198 155.273 1.80479 151.61 1.80479C147.967 1.80479 144.778 3.07177 142.507 5.51089C140.245 7.94157 138.976 11.4472 138.976 15.7926C138.976 20.1321 140.212 23.6385 142.46 26.0718C144.719 28.5156 147.912 29.7804 151.61 29.7804ZM157.256 15.7927C157.256 18.0915 156.735 20.1484 155.768 21.5986C154.824 23.0129 153.459 23.8592 151.611 23.8592C149.772 23.8592 148.405 22.9947 147.456 21.5609C146.485 20.0938 145.966 18.0341 145.966 15.7927C145.966 13.5542 146.493 11.4943 147.469 10.0261C148.425 8.58888 149.793 7.72614 151.611 7.72614C153.411 7.72614 154.784 8.62149 155.748 10.094C156.73 11.5928 157.256 13.6575 157.256 15.7927Z" fill="#EA8FE1"/>
<path fill-rule="evenodd" clip-rule="evenodd" d="M138.975 0.90239V8.42035H130.299V28.878H122.335V8.42035H113.707V0.90239H138.975Z" fill="#A4ADFF"/>
<path fill-rule="evenodd" clip-rule="evenodd" d="M149.805 3.22324C146.505 3.22324 143.656 4.44867 141.634 6.77508C139.615 9.09889 138.445 12.4939 138.445 16.7926C138.445 21.0896 139.586 24.4848 141.591 26.8095C143.599 29.1373 146.449 30.3621 149.805 30.3621C152.934 30.3621 155.781 29.1857 157.845 26.8867C159.907 24.5883 161.165 21.1927 161.165 16.7926C161.165 12.6666 159.993 9.27388 157.977 6.90858C155.959 4.54061 153.111 3.22324 149.805 3.22324ZM140.688 5.89102C142.978 3.25478 146.187 1.9024 149.805 1.9024C153.456 1.9024 156.658 3.36673 158.932 6.03393C161.193 8.68625 162.439 12.411 162.439 16.7926C162.439 21.4544 161.103 25.1955 158.777 27.7864C156.448 30.3813 153.25 31.6829 149.805 31.6829C146.136 31.6829 142.923 30.3343 140.642 27.69C138.376 25.0639 137.171 21.3249 137.171 16.7926C137.171 12.2503 138.41 8.51267 140.688 5.89102ZM145.337 10.569C146.342 8.94925 147.83 7.92621 149.805 7.92621C151.776 7.92621 153.265 8.99373 154.273 10.6418L153.735 10.9955L154.273 10.6418C155.285 12.2973 155.803 14.5288 155.803 16.7927C155.803 19.2147 155.293 21.4437 154.288 23.0574C153.289 24.6604 151.803 25.6592 149.805 25.6592C147.81 25.6592 146.323 24.6356 145.323 23.0169C144.317 21.3885 143.808 19.1586 143.808 16.7927C143.808 14.4278 144.326 12.1978 145.337 10.569ZM149.805 9.24705C148.33 9.24705 147.218 9.97934 146.409 11.2837C145.566 12.6422 145.082 14.6033 145.082 16.7927C145.082 18.9873 145.558 20.9481 146.396 22.3045C147.198 23.6031 148.308 24.3384 149.805 24.3384C151.318 24.3384 152.424 23.6154 153.218 22.3408C154.05 21.004 154.529 19.048 154.529 16.7927C154.529 14.7124 154.049 12.743 153.197 11.3491C152.372 10.0012 151.254 9.24705 149.805 9.24705Z" fill="black"/>
<path fill-rule="evenodd" clip-rule="evenodd" d="M127.187 8.10901H135.864V3.21376H113.21V8.10901H121.837V28.5667H127.187V8.10901ZM128.494 29.878H120.53V9.42037H111.903V1.9024H137.171V9.42037H128.494V29.878Z" fill="black"/>
<path fill-rule="evenodd" clip-rule="evenodd" d="M205.923 1.80479H211.004L222 28.878H214.499L212.353 22.3216H204.705L202.491 28.878H194.927C199.221 17.3702 201.629 13.3125 205.923 1.80479ZM206.915 15.7804H210.212L208.589 10.822L206.915 15.7804Z" fill="#EA8FE1"/>
<path fill-rule="evenodd" clip-rule="evenodd" d="M203.572 23.3226H210.784L213.347 29.878H221.098L209.735 2.80481H204.485L193.122 29.878H200.938L203.572 23.3226ZM200.032 28.568L202.666 22.0126H211.699L214.262 28.568H219.107L208.844 4.1148H205.376L195.113 28.568H200.032ZM210.764 18.7776H203.644L207.26 8.41822L210.764 18.7776ZM208.917 17.4676L207.24 12.5099L205.509 17.4676H208.917Z" fill="black"/>
</svg>
