<?xml version="1.0" encoding="UTF-8"?> <svg xmlns="http://www.w3.org/2000/svg" width="36" height="36" viewBox="0 0 36 36" fill="none"> <path d="M15.7587 1.15466C2.1059 3.39617 -2.78467 19.1547 5.57005 28.9358C13.7889 38.7169 30.4304 36.0679 34.5059 22.8905C34.5738 22.7547 34.5059 22.6188 34.438 22.483C34.3021 22.2792 34.0304 22.2792 33.8267 22.415C28.4606 27.0339 20.1059 26.8981 14.8757 21.532C19.4267 26.7622 27.238 27.9169 33.2153 23.9773C28.3248 35.049 13.721 36.6792 6.58892 28.0528C-1.2224 18.815 3.46439 5.36598 14.4682 2.3773C10.8002 6.5207 9.98514 12.0905 11.8191 16.8452C12.4984 18.6113 13.5172 20.1735 14.8078 21.532C11.1399 17.3207 10.2568 11.3433 12.838 6.18108C14.604 2.58108 16.37 2.24146 16.2342 1.56221C16.2342 1.29051 16.0304 1.15466 15.7587 1.15466Z" fill="#AF9792"></path> <path d="M19.1548 5.97733C19.0869 5.84148 18.8831 5.70563 18.6793 5.6377C17.5246 5.36601 17.8642 7.19997 16.9133 10.3924C13.0416 12.6339 12.9737 12.6339 12.9057 12.9735C12.8378 13.2452 13.0416 13.5169 13.3133 13.5849C14.8076 13.8566 16.302 14.1283 17.7284 14.4C18.5435 15.6905 19.3586 16.9132 20.1737 18.2037C20.1737 18.1358 18.2718 13.9245 18.068 13.7886C17.6605 13.6528 16.5737 13.3811 14.8756 12.9056C18.8831 10.8679 17.8642 12.0226 18.8152 8.15091C18.8831 8.21883 20.3774 10.8679 20.2416 10.732C20.4454 11.0717 20.5133 11.0037 23.9095 11.683C20.785 13.5849 20.9888 13.449 20.9208 13.5849C20.6491 15.1471 20.3774 16.6415 20.1737 18.2037C20.6491 16.7773 21.0567 15.3509 21.5321 13.9245C25.8793 11.8188 25.7435 11.8868 25.8114 11.5471C25.8793 11.2754 25.7435 11.0037 25.4718 10.9358H25.4038C23.9774 10.5283 22.6189 10.1886 21.1925 9.84902L19.1548 5.97733Z" fill="#AF9792"></path> <path d="M25.8797 22.4829C26.0835 22.6867 26.4231 22.6867 26.6269 22.4829C27.4419 21.5999 28.257 20.7169 29.0042 19.7659C30.2269 19.7659 31.3816 19.698 32.6042 19.6301C32.5363 19.6301 28.8684 19.0188 28.6646 19.2225C28.1891 19.6301 27.4419 20.3093 26.8986 20.8527C27.1702 17.5924 27.5099 18.5433 25.4721 16.5056C25.5401 16.5056 27.6457 16.5735 27.5099 16.5735C27.8495 16.5735 27.8495 16.5056 29.6155 14.6037C29.6155 16.981 29.6155 17.1169 29.7514 17.1848C30.7023 17.9999 31.6533 18.815 32.6721 19.5622C31.925 18.6112 31.1778 17.7282 30.3627 16.8452C30.4986 15.6225 30.6344 14.4678 30.7023 13.2452C30.7023 13.1093 30.7023 12.9735 30.5665 12.8376C30.3627 12.6339 30.0231 12.6339 29.8193 12.8376H29.7514C28.9363 13.5848 28.1212 14.3999 27.2382 15.215C23.8419 15.0792 23.6382 14.8075 23.2306 15.215C22.9589 15.4867 22.9589 15.8942 23.2306 16.1659L25.7438 18.6112C25.6759 22.415 25.6759 22.2791 25.8797 22.4829Z" fill="#AF9792"></path> <path d="M31.5171 5.50186C31.5171 4.27921 31.4491 3.1245 31.3812 1.90186C31.3812 2.10563 30.7699 5.6377 30.9057 5.84148C31.3133 6.31695 31.9925 7.06412 32.5359 7.60752C31.7208 7.53959 30.9057 7.47167 30.1586 7.40374C29.819 7.40374 29.751 7.47167 28.2567 9.03393C28.3246 6.9962 28.3925 6.79242 28.1208 6.52072C27.5095 5.97733 26.9661 5.43393 26.3548 4.89053H28.7322C29.0039 4.89053 31.2454 2.0377 31.3133 1.90186C30.3623 2.64903 29.4793 3.39619 28.5963 4.21129C27.3737 4.07544 26.2189 3.93959 24.9963 3.87167C24.5208 3.80374 24.2491 4.41506 24.5888 4.75469V4.82261C25.3359 5.6377 26.151 6.52072 26.9661 7.33582C26.8303 10.732 26.5586 10.9358 26.9661 11.3434C27.2378 11.6151 27.6454 11.6151 27.9171 11.3434L30.3624 8.83016C31.5171 8.83016 32.6718 8.89808 33.8265 8.89808C35.3888 8.49053 33.6907 7.33582 31.5171 5.50186Z" fill="#AF9792"></path> </svg> 