<?xml version="1.0" encoding="UTF-8"?> <svg xmlns="http://www.w3.org/2000/svg" width="36" height="36" viewBox="0 0 36 36" fill="none"> <path d="M34.6847 1.17691C34.6155 1.10768 34.5463 1.10768 34.477 1.03845C34.4078 1.03845 34.3386 1.03845 34.2693 1.03845C34.2001 1.03845 34.1309 1.03845 34.0617 1.10768C22.2232 4.91538 11.2155 8.99999 1.03857 12.6C13.5001 8.86153 20.354 6.85384 31.154 3.3923L27.8309 6.16153L21.8078 11.2154L15.854 16.2692L10.177 21.1154C8.72319 19.7308 7.26934 18.4154 5.8155 17.0308C4.22319 15.5769 2.63088 14.0538 1.03857 12.5308L5.40011 17.1692C6.85396 18.7615 8.37704 20.3538 9.90011 21.9461L10.177 25.6154C10.3155 26.9308 10.3847 28.1769 10.454 29.4231C10.3847 28.0385 10.3847 26.7231 10.3847 25.4077V21.8769L16.477 17.0308L22.5693 12.1154L28.5232 7.19999L23.5386 13.0846L18.554 19.1077C15.7155 22.5692 16.477 21.6692 13.5693 25.1308C13.4309 25.2692 13.4309 25.4769 13.5693 25.6154C12.5309 26.8615 11.4924 28.1077 10.454 29.4231C11.4924 28.2461 12.6001 27 13.7078 25.7538C15.3001 27.2769 16.9617 28.8692 18.554 30.3231L23.3309 34.8231C18.9693 30.2538 17.377 28.4538 14.4693 25.3385L19.3847 19.7308L24.5078 13.8461L29.6309 7.8923L32.5386 4.49999C29.077 15.3692 27.1386 22.2923 23.3309 34.7538C27.0001 24.7846 31.0155 13.8461 34.8924 2.00768C35.0309 1.79999 34.9617 1.45384 34.8232 1.24614C34.754 1.24614 34.754 1.24614 34.6847 1.17691Z" fill="#AF9792"></path> </svg> 