<svg width="37" height="36" viewBox="0 0 37 36" fill="none" xmlns="http://www.w3.org/2000/svg">
<path d="M28.493 15.0193L11.993 5.71034C11.4542 5.4024 10.8434 5.24267 10.2227 5.24742C9.60213 5.25216 8.99384 5.4212 8.45976 5.73734C7.93943 6.03493 7.50714 6.46493 7.2068 6.98368C6.90646 7.50242 6.74878 8.09142 6.74976 8.69084V27.3088C6.74878 27.9082 6.90646 28.4972 7.2068 29.016C7.50714 29.5347 7.93943 29.9647 8.45976 30.2623C8.99389 30.5783 9.60216 30.7473 10.2227 30.752C10.8433 30.7568 11.4541 30.5971 11.993 30.2893L28.493 20.9803C29.0252 20.6855 29.4687 20.2537 29.7775 19.7295C30.0863 19.2054 30.2492 18.6082 30.2492 17.9998C30.2492 17.3915 30.0863 16.7942 29.7775 16.2701C29.4687 15.746 29.0252 15.3141 28.493 15.0193V15.0193Z" fill="#212121"/>
</svg>
