<?xml version="1.0" encoding="UTF-8"?> <svg xmlns="http://www.w3.org/2000/svg" width="36" height="36" viewBox="0 0 36 36" fill="none"> <path d="M12.634 21.7357C12.9057 20.8527 13.0416 19.9017 13.1774 19.0187C13.2453 18.2036 13.517 17.4564 13.8567 16.7093C14.2642 16.03 14.7397 15.3508 15.351 14.8753C15.9623 14.3319 16.7095 13.9244 17.5925 13.5847C16.6416 13.381 15.6227 13.5168 14.7397 13.9923C13.8567 14.4678 13.1095 15.2149 12.634 16.0979C12.1586 16.981 11.9548 18.0678 12.0906 19.0187C12.2265 19.9017 12.3623 20.8527 12.634 21.7357Z" fill="#AF9792"></path> <path d="M8.6266 27.5094C8.42282 27.5094 8.28697 27.5773 8.0832 27.6452C7.40395 27.849 6.86056 28.2566 6.45301 28.8679C6.24924 29.1396 6.11339 29.4792 6.04546 29.8188C5.97754 30.1584 5.97754 30.4981 5.97754 30.7698L6.11339 32.4C6.11339 32.7396 6.24924 33.2151 6.52094 33.4867C6.79263 33.7584 7.20018 33.9622 7.60773 33.8943L10.936 33.7584C13.1775 33.6226 15.419 33.5547 17.5926 33.4188C15.3511 33.283 13.1096 33.2151 10.936 33.0792L7.60773 32.9434C7.2681 32.9434 7.06433 32.6717 7.06433 32.332L7.13226 30.6339C7.13226 30.2943 7.13226 30.1584 7.20018 29.9547C7.26811 29.7509 7.33603 29.5471 7.47188 29.4113C7.74358 29.0717 8.0832 28.8 8.49075 28.732C8.55867 28.732 8.69452 28.6641 8.83037 28.6641H9.16999C9.71339 28.6641 11.819 28.732 11.6832 28.732L18.3398 28.8L24.9964 28.732H26.6945H27.3738C27.5775 28.8 27.7813 28.8679 27.9172 28.9358C28.2568 29.1396 28.5285 29.4792 28.6643 29.8867C28.7323 30.0905 28.7323 30.2943 28.8002 30.566C28.8002 30.6339 28.8681 32.332 28.8681 32.2641V32.6037C28.8681 32.8075 28.6643 33.0113 28.4606 33.0113C28.3926 33.0113 28.2568 33.0113 28.1209 33.0113H27.7134L24.3851 33.1471C22.1436 33.283 19.9021 33.283 17.6606 33.4867C19.9021 33.6226 22.1436 33.6905 24.3172 33.8264C24.3851 33.8264 28.3247 33.9622 28.053 33.9622H28.5285C28.936 33.8943 29.3436 33.6905 29.5474 33.3509C29.6832 33.2151 29.7511 33.0113 29.819 32.8075C29.819 32.7396 29.819 32.6037 29.887 32.5358C29.887 32.4679 29.887 31.449 29.887 31.5169V30.7018C29.887 30.4301 29.887 30.0226 29.7511 29.683C29.4115 28.6641 28.5285 27.849 27.5775 27.6452C27.3058 27.5773 27.0341 27.5773 26.7624 27.5773L26.8983 22.6188L26.9662 19.8339C27.0341 18.9509 26.9662 17.8641 26.7624 16.9132C26.287 14.9434 25.2002 13.1773 23.57 11.9547C22.0077 10.732 19.97 10.0528 18.0002 9.98486C16.0304 9.98486 13.9926 10.6641 12.4304 11.9547C10.8681 13.1773 9.71339 14.9434 9.30584 16.9132C9.23792 17.1849 9.16999 17.3886 9.16999 17.6603C9.16999 17.932 9.10207 18.1358 9.10207 18.4075V19.1547C9.10207 19.2905 9.16999 22.8226 9.16999 22.6188L9.30584 27.5773H9.16999C9.03414 27.4415 8.83037 27.4415 8.6266 27.5094ZM10.2568 19.0188L10.3247 18.3396C10.3247 18.1358 10.3926 17.932 10.3926 17.7283C10.3926 17.5245 10.4606 17.3207 10.5285 17.1169C10.936 15.4188 11.9549 13.9245 13.3134 12.9056C14.6719 11.8188 16.37 11.2754 18.0681 11.2754C19.7662 11.2754 21.4643 11.8188 22.8228 12.9056C24.1813 13.9245 25.2002 15.4188 25.6077 17.1169C25.7436 17.5245 25.8115 17.932 25.8115 18.4075C25.8794 18.8151 25.8794 19.2905 25.8794 19.766L25.9474 22.5509L26.0832 27.5094H24.9964L18.3398 27.3735L11.6832 27.4415H10.053L10.1889 22.483C10.1889 22.3471 10.2568 18.883 10.2568 19.0188Z" fill="#AF9792"></path> <path d="M10.6642 29.6151C10.1208 29.6151 9.57741 29.8868 9.23779 30.2264C8.83024 30.5661 8.62646 31.1095 8.62646 31.5849C9.37363 30.9736 9.98495 30.7019 10.7321 30.634C11.1397 30.634 11.6151 30.5661 12.0227 30.4981C12.4302 30.4302 12.9057 30.2944 13.3133 30.0906C12.9057 29.8868 12.4302 29.751 12.0227 29.683C11.5472 29.6151 11.1397 29.6151 10.6642 29.6151Z" fill="#AF9792"></path> <path d="M18.6117 3.19238C18.4758 2.78483 18.34 2.44521 18.0683 2.03766C17.7966 2.37728 17.6608 2.78483 17.5249 3.12445C17.1853 4.34709 17.457 5.70559 18.0683 6.45276C18.34 6.18106 18.9513 4.41502 18.6117 3.19238Z" fill="#AF9792"></path> <path d="M23.9095 6.58862C24.1133 6.24899 24.317 5.9773 24.4529 5.56975C24.5887 5.23013 24.6567 4.8905 24.7246 4.48296C24.7246 4.07541 24.7246 3.66786 24.5887 3.26031C24.1812 3.53201 23.9095 3.80371 23.7057 4.14333C23.2982 4.75465 23.0265 5.4339 22.8906 6.24899C22.8906 6.65654 22.8906 7.06409 23.0265 7.47164C23.434 7.19994 23.7057 6.86032 23.9095 6.58862Z" fill="#AF9792"></path> <path d="M12.2267 6.58862C12.4305 6.92824 12.7022 7.19994 13.1097 7.47164C13.2456 6.99616 13.2456 6.65654 13.2456 6.24899C13.1777 5.50182 12.906 4.75465 12.4305 4.14333C12.2267 3.80371 11.955 3.53201 11.5475 3.26031C11.4116 3.73579 11.4116 4.07541 11.4116 4.48296C11.4795 4.8905 11.5475 5.23013 11.6833 5.56975C11.8192 5.90937 11.955 6.24899 12.2267 6.58862Z" fill="#AF9792"></path> </svg> 