<svg width="12" height="12" viewBox="0 0 12 12" fill="none" xmlns="http://www.w3.org/2000/svg">
<path d="M10.8748 5.95506C11.0359 5.79762 11.1498 5.59825 11.2035 5.37948C11.2573 5.16071 11.2487 4.93127 11.1789 4.7171C11.1091 4.50292 10.9807 4.31255 10.8084 4.1675C10.636 4.02246 10.4265 3.92852 10.2035 3.89631L8.27978 3.61506C8.20928 3.60387 8.14238 3.57633 8.08443 3.53466C8.02647 3.49298 7.97908 3.43833 7.94603 3.37506L7.08353 1.63131C6.98401 1.42877 6.82972 1.25816 6.63816 1.13885C6.44661 1.01954 6.22545 0.956299 5.99978 0.956299C5.7741 0.956299 5.55294 1.01954 5.36139 1.13885C5.16983 1.25816 5.01554 1.42877 4.91603 1.63131L4.05353 3.37506C4.02077 3.44183 3.97223 3.4996 3.91212 3.54338C3.852 3.58716 3.78212 3.61563 3.70853 3.62631L1.78478 3.90756C1.56502 3.943 1.35935 4.03849 1.19046 4.18349C1.02157 4.32849 0.896054 4.51734 0.827764 4.7292C0.759474 4.94105 0.751071 5.16766 0.803486 5.38399C0.8559 5.60032 0.96709 5.79796 1.12478 5.95506L2.51603 7.31256C2.56571 7.36691 2.60154 7.43245 2.62047 7.50361C2.63941 7.57478 2.64088 7.64946 2.62478 7.72131L2.31353 9.63756C2.27507 9.85968 2.29957 10.0881 2.38424 10.2971C2.46891 10.506 2.61037 10.687 2.79262 10.8197C2.97486 10.9524 3.19061 11.0314 3.41544 11.0478C3.64026 11.0642 3.8652 11.0174 4.06478 10.9126L5.78603 10.0088C5.8519 9.974 5.92527 9.95581 5.99978 9.95581C6.07428 9.95581 6.14765 9.974 6.21353 10.0088L7.93478 10.9126C8.13435 11.0174 8.35929 11.0642 8.58412 11.0478C8.80894 11.0314 9.02469 10.9524 9.20694 10.8197C9.38918 10.687 9.53064 10.506 9.61531 10.2971C9.69998 10.0881 9.72448 9.85968 9.68603 9.63756L9.37478 7.72131C9.36219 7.64822 9.36756 7.57317 9.39042 7.50261C9.41329 7.43206 9.45296 7.36812 9.50603 7.31631L10.8748 5.95506Z" fill="#AF9792"/>
</svg>
