<svg width="48" height="49" viewBox="0 0 48 49" fill="none" xmlns="http://www.w3.org/2000/svg">
<path d="M47.1645 33.6969C46.2598 33.6981 44.2765 33.3353 43.2158 33.8032C43.1339 33.2022 42.6933 32.5999 42.401 32.0993C41.8804 31.2065 41.3003 30.3477 40.7241 29.4901C40.4805 29.127 40.1139 29.0657 39.7965 29.1889C39.7292 27.7629 39.5231 26.3478 39.3597 24.9302C39.2487 23.9693 39.2723 22.9409 39.1282 21.9669C40.9802 23.315 42.6352 24.958 43.9981 26.9289C44.8663 28.1848 46.9341 26.9955 46.0579 25.7249C41.7165 19.4303 34.0669 15.8188 26.1049 15.083C29.021 12.3298 29.2668 6.12305 24.8435 4.54678C22.8065 3.82111 20.6521 5.49497 19.8053 7.22993C18.9797 8.92069 19.5952 12.0757 22.0985 11.4464C22.7137 11.2917 22.8674 10.5176 22.4591 10.0807C21.7799 9.3543 21.2415 9.21001 21.7866 8.1451C22.2286 7.28109 23.2335 6.42653 24.2552 6.68084C26.002 7.11545 26.3179 9.90266 26.0065 11.2897C25.6186 13.0145 24.4076 14.6585 22.666 14.9456C13.686 15.0524 4.85245 18.8271 0.416208 26.5653C-0.201434 27.6427 1.33236 28.4605 2.03817 27.5133C3.25011 25.8866 4.69152 24.4487 6.29784 23.1992C6.43468 24.8309 6.66862 26.4521 6.54197 28.0924C6.34304 28.201 6.1759 28.3728 6.11381 28.5961C5.77507 29.8142 5.23913 30.9894 5.23143 32.2719C5.16736 32.3598 5.10254 32.4475 5.04045 32.5364C3.55583 32.1902 2.11094 32.1211 0.633761 32.5883C-0.164182 32.8408 -0.177593 33.758 0.420678 34.2192C1.4471 35.0099 2.54952 35.7242 3.45102 36.6614C4.51296 37.7653 3.84714 39.2912 3.28612 40.4651C2.98636 41.0925 3.49697 42.1517 4.319 41.8082C6.13269 41.051 7.87436 40.11 9.52339 39.0386C10.2759 40.0467 11.2037 40.8675 12.4112 41.3368C13.0308 41.5775 13.4838 40.8891 13.3887 40.3591C12.8408 37.3066 13.719 35.2692 15.6996 32.9645C16.1662 32.4214 15.8682 31.5768 15.1152 31.5534C13.7994 31.5129 12.5008 31.2892 11.2015 31.5497C11.2253 31.3036 11.1049 31.056 10.9534 30.8749C9.98358 29.7164 8.62884 28.9313 7.37915 28.112C7.71318 26.2425 7.56119 24.2989 7.61508 22.409C7.61657 22.3529 7.59745 22.3111 7.58826 22.2627C12.0004 19.2649 17.4507 17.589 22.9123 17.3906C22.8557 17.5004 22.817 17.6263 22.8165 17.7793C22.8093 21.0215 23.2372 24.3901 24.0694 27.5426C22.3064 27.1189 20.3702 27.1492 18.6763 27.3499C17.8291 27.4502 17.0546 28.5509 17.8897 29.249C19.8316 30.8724 20.564 33.2717 20.519 35.7423C20.5068 36.4116 20.3956 36.9952 20.2279 37.5269C20.1676 37.6044 20.139 37.6926 20.1557 37.785C19.4596 39.6441 17.7934 40.592 15.4713 40.6199C14.9265 40.6261 14.7218 41.158 14.8944 41.5514C14.7303 41.9182 14.7355 42.3739 15.0504 42.7708C19.6371 48.5603 26.502 44.4084 28.6924 38.7654C29.7221 36.1126 29.9711 33.0477 28.4575 30.5262C27.6794 29.2304 26.5256 28.4116 25.2111 27.9057C24.7362 24.5127 24.5634 21.1993 24.5072 17.779C24.5043 17.6188 24.4588 17.4894 24.3952 17.3764C29.0952 17.4378 33.7321 18.5859 37.6406 20.9671C37.316 22.1169 37.5942 23.3035 37.7713 24.477C38.0335 26.2122 38.4423 27.9568 38.8551 29.6617C38.8933 29.8204 38.9961 29.916 39.1188 29.9672C38.8064 30.49 38.2975 30.9733 37.9483 31.4409C37.5535 31.9686 37.2795 32.5461 37.1208 33.1806C36.2154 33.2419 35.3814 34.1442 34.3451 34.018C33.4475 33.9087 33.2565 35.1974 33.9142 35.6094C34.2306 35.8084 34.5199 36.0475 34.8018 36.2981C34.5884 36.4409 34.3739 36.5849 34.1722 36.7126C33.7982 36.949 34.1265 37.511 34.5184 37.3047C34.8075 37.1522 35.0943 36.9955 35.3822 36.8395C35.7224 37.1765 36.0574 37.522 36.4071 37.8473C36.2571 38.0795 36.1399 38.3194 36.0207 38.5593C35.8622 38.6798 35.6971 38.7935 35.5406 38.9164C35.3402 39.0734 35.4552 39.3163 35.6409 39.4131C35.3233 40.224 35.0643 41.0637 34.6843 41.9244C34.3935 42.5831 34.8626 43.3576 35.6377 43.1644C36.4669 42.9581 37.2418 42.6506 37.9881 42.2863C38.1306 42.4415 38.3678 42.4956 38.5575 42.2898C38.789 42.0387 39.0304 41.8037 39.279 41.5797C39.7394 41.2974 40.1937 40.9991 40.638 40.677C41.3808 42.0352 42.4752 43.0341 43.9137 43.7505C44.5082 44.0466 45.3024 43.5613 45.0841 42.8508C44.6609 41.4724 44.2117 40.0586 44.6036 38.6217C44.647 38.4632 44.7104 38.311 44.7787 38.1607C44.9833 38.0174 45.1897 37.8756 45.3665 37.7038C45.5371 37.5381 45.5354 37.3161 45.4393 37.1452C46.113 36.3512 47.0255 35.681 47.7447 35.0966C48.3228 34.629 47.8274 33.6962 47.1645 33.6969ZM3.82727 34.4866C3.4704 34.1988 3.09936 33.9219 2.72361 33.6631C3.24788 33.5288 3.79523 33.5101 4.3791 33.5521C4.18241 33.873 3.99814 34.1861 3.82727 34.4866ZM11.6721 39.3704C11.1359 39.1005 10.6688 38.7438 10.2361 38.2933C10.2943 38.0415 10.228 37.7793 10.0834 37.5744C10.1835 37.481 10.2729 37.3792 10.3755 37.2875C10.9 36.8206 11.5064 36.4325 12.0451 35.978C11.7128 37.0295 11.5815 38.1379 11.6721 39.3704ZM12.853 33.0636C13.0775 33.0698 13.3015 33.0713 13.5265 33.0894C13.0966 33.6962 12.746 34.3041 12.4601 34.9237C12.3496 34.8515 12.215 34.814 12.0667 34.8892C11.2181 35.3213 10.4932 36.0706 9.81396 36.726C9.65253 36.882 9.51395 37.0588 9.36047 37.2225C9.23829 37.2307 9.11138 37.2572 8.97851 37.3283C7.89224 37.9111 6.83576 38.5342 5.75247 39.1109C6.60629 38.4803 7.37443 37.6553 8.10358 36.9793C8.88091 36.2586 9.66669 35.5486 10.4756 34.8636C11.2281 34.2269 12.1075 33.7101 12.853 33.0636ZM10.3948 32.3176C10.3924 32.6171 10.553 32.9086 10.8091 33.0711C9.96843 33.7188 9.19582 34.5097 8.50516 35.1542C7.62377 35.977 6.66937 36.8013 5.76488 37.6566C5.72167 37.2182 5.61538 36.7757 5.40975 36.3254C5.36877 36.2358 5.30321 36.156 5.25329 36.0701C6.05992 35.482 6.83104 34.8517 7.57112 34.1755C8.2963 33.5129 9.12703 32.8562 9.85245 32.138C10.0226 32.2413 10.2021 32.3101 10.3948 32.3176ZM8.19721 30.7048C8.30673 30.7813 8.42023 30.8511 8.52776 30.9306C8.73637 31.0845 8.94225 31.3083 9.15583 31.5308C8.62437 32.0104 8.13438 32.5543 7.64637 33.039C6.76548 33.9142 5.86025 34.7598 4.88971 35.5322C4.75262 35.3656 4.61131 35.2006 4.45286 35.0444C4.93043 34.3212 5.44402 33.6256 5.98964 32.9541C6.23352 32.8915 6.45256 32.706 6.48981 32.3807C6.49081 32.3737 6.49304 32.3667 6.49379 32.3595C7.03245 31.7727 7.64463 31.2705 8.19721 30.7048ZM24.1233 29.8733C23.8131 30.0705 23.5126 30.2727 23.2446 30.4326C22.8155 30.6887 22.3657 30.9442 21.9612 31.2494C21.7024 30.6065 21.3818 29.9915 20.9988 29.4243C22.0694 29.4186 23.153 29.5294 24.1233 29.8733ZM25.1755 40.4636C23.2039 41.545 21.2263 42.3727 19.1196 43.048C18.6082 42.8354 18.1177 42.5371 17.6573 42.174C18.4284 42.0742 19.1327 41.7787 19.7635 41.3565C19.8082 41.5849 20.0382 41.7692 20.2853 41.5998C21.4488 40.8034 22.6374 40.0564 23.8732 39.3769C24.7139 38.9149 25.6201 38.5645 26.5022 38.1761C26.1761 38.9895 25.7125 39.7554 25.1755 40.4636ZM26.941 36.8549C24.9068 37.4552 22.8878 38.8131 21.1205 40.0911C21.6984 39.3533 22.1422 38.4726 22.404 37.5078C22.4194 37.4509 22.4219 37.3903 22.436 37.3335C22.9722 37.0938 23.4992 36.833 24.0237 36.5532C25.0871 35.9862 26.2484 35.4594 27.2791 34.8098C27.248 35.5014 27.1186 36.1938 26.941 36.8549ZM27.252 33.8593C25.6015 34.3009 24.1429 35.377 22.6265 36.2939C22.6908 35.7656 22.7211 35.2314 22.697 34.6933C23.2489 34.2485 23.8173 33.8258 24.4183 33.4416C25.177 32.9563 26.0219 32.6173 26.7881 32.1534C27.0555 32.6884 27.1929 33.2665 27.252 33.8593ZM25.1924 30.4001C25.6164 30.6685 25.9926 31.017 26.3232 31.4337C25.0111 31.8291 23.7071 32.7572 22.5927 33.7401C22.5088 33.1354 22.3913 32.5349 22.2043 31.9528C22.6893 31.6796 23.1972 31.4255 23.672 31.1645C24.1285 30.9134 24.6898 30.6852 25.1924 30.4001ZM42.098 34.6729C41.0522 35.0387 40.0677 35.752 39.1717 36.3376C38.8014 36.5795 38.4368 36.8345 38.07 37.0851C38.037 37.0541 38.0166 37.0168 37.9784 36.9888C37.589 36.7009 37.2358 36.3694 36.8911 36.0284C37.3066 35.8031 37.7199 35.5737 38.1391 35.3564C39.2581 34.7762 40.4288 34.5003 41.5849 34.1111C41.7304 34.356 41.902 34.549 42.098 34.6729ZM36.2149 35.3519C36.2082 35.3454 36.2012 35.3385 36.1948 35.3318C36.837 35.0074 37.3901 34.513 37.6399 33.908C37.7983 33.8784 37.9483 33.7786 38.0253 33.5807C38.3748 32.6764 39.1295 31.8326 39.8837 31.1084C40.2192 31.6257 40.5595 32.14 40.8766 32.669C40.9449 32.7827 41.0125 32.9238 41.0815 33.0733C39.4121 33.3264 37.731 34.3406 36.2149 35.3519ZM38.1507 38.3236C38.2553 38.2052 38.3189 38.079 38.3549 37.9506C38.7838 37.6802 39.2109 37.4075 39.6465 37.1499C40.7817 36.4791 42.0995 36.0065 43.1386 35.2016C43.5707 35.418 44.1722 35.4845 44.805 35.4788C44.1647 36.1096 43.6097 36.8142 43.2625 37.6228C42.5798 38.0105 41.9179 38.4607 41.2946 38.8457C41.1307 38.9467 40.9891 39.0756 40.8297 39.1824C40.6109 38.9919 40.3091 38.9269 39.9885 39.1573C38.9691 39.8912 37.924 40.5275 36.7915 40.9993C37.1117 40.0439 37.4561 39.1079 38.1507 38.3236ZM43.0484 41.5152C42.4526 41.1066 41.9467 40.5863 41.4806 39.9747C41.5973 39.9034 41.7098 39.8286 41.8278 39.7588C42.1596 39.5631 42.516 39.3863 42.8776 39.2115C42.8115 39.9799 42.8818 40.7522 43.0484 41.5152Z" fill="#BAB0FF"/>
</svg>
