<svg width="1440" height="240" viewBox="0 0 1440 240" fill="none" xmlns="http://www.w3.org/2000/svg">
<path fill-rule="evenodd" clip-rule="evenodd" d="M0 144L39.6 126C80.4 108 159.6 72 240 66C320.4 60 399.6 84 480 102C560.4 120 639.6 132 720 126C800.4 120 879.6 96 960 96C1040.4 96 1119.6 120 1200 108C1280.4 96 1359.6 48 1400.4 24L1440 0V239.5H1400.4C1359.6 239.5 1280.4 239.5 1200 239.5C1119.6 239.5 1040.4 239.5 960 239.5C879.6 239.5 800.4 239.5 720 239.5C639.6 239.5 560.4 239.5 480 239.5C399.6 239.5 320.4 239.5 240 239.5C159.6 239.5 80.4 239.5 39.6 239.5H0V144Z" fill="#FDF7F3"/>
</svg>
