<svg width="20" height="20" viewBox="0 0 20 20" fill="none" xmlns="http://www.w3.org/2000/svg">
<path d="M8.08738 11.0333C8.02458 11.0333 6.70718 11.0337 6.09958 11.0331C5.78678 11.0329 5.67518 10.9205 5.67518 10.6057C5.67478 9.79713 5.67458 8.98853 5.67518 8.17993C5.67538 7.86913 5.79338 7.75053 6.10218 7.75033C6.70978 7.74993 8.01998 7.75013 8.08738 7.75013C8.08738 7.69473 8.08718 6.52733 8.08738 5.98973C8.08778 5.19493 8.22958 4.43412 8.63338 3.73752C9.04678 3.02452 9.64838 2.53612 10.4194 2.25372C10.9132 2.07272 11.4258 2.00052 11.9498 2.00012C12.6054 1.99972 13.261 2.00032 13.9168 2.00152C14.1986 2.00192 14.3236 2.12652 14.3242 2.41032C14.3254 3.17092 14.3254 3.93152 14.3242 4.69192C14.3238 4.97872 14.204 5.09392 13.9158 5.09713C13.3784 5.10293 12.8406 5.09932 12.3038 5.12092C11.7616 5.12092 11.4764 5.38573 11.4764 5.94693C11.4634 6.54053 11.471 7.13473 11.471 7.74993C11.5218 7.74993 13.0648 7.74973 13.786 7.74993C14.1136 7.74993 14.2256 7.86253 14.2256 8.19193C14.2256 8.99613 14.2254 9.80053 14.2248 10.6047C14.2246 10.9293 14.1194 11.0329 13.7898 11.0331C13.0686 11.0335 11.5316 11.0333 11.4644 11.0333V17.5423C11.4644 17.8893 11.3552 17.9999 11.0128 17.9999C10.178 17.9999 9.34298 18.0001 8.50818 17.9999C8.20558 17.9999 8.08758 17.8823 8.08758 17.5797C8.08738 15.4599 8.08738 11.1077 8.08738 11.0333Z" fill="white"/>
</svg>
