<svg width="22" height="22" viewBox="0 0 22 22" fill="none" xmlns="http://www.w3.org/2000/svg">
<g clip-path="url(#clip0_319_6543)">
<path d="M11.9276 7.59621L13.1657 8.83433C13.7346 9.4031 14.1858 10.0783 14.4936 10.8215C14.8015 11.5647 14.9599 12.3612 14.9599 13.1656C14.9599 13.97 14.8015 14.7665 14.4936 15.5097C14.1858 16.2528 13.7346 16.9281 13.1657 17.4968L12.856 17.8057C11.7073 18.9544 10.1493 19.5998 8.52473 19.5998C6.90019 19.5998 5.3422 18.9544 4.19348 17.8057C3.04476 16.657 2.39941 15.099 2.39941 13.4745C2.39941 11.8499 3.04476 10.2919 4.19348 9.14321L5.4316 10.3813C5.02243 10.7869 4.69739 11.2694 4.47516 11.8009C4.25294 12.3325 4.13789 12.9027 4.13663 13.4789C4.13536 14.055 4.24791 14.6257 4.46781 15.1583C4.68771 15.6908 5.01063 16.1746 5.41802 16.582C5.82542 16.9894 6.30927 17.3124 6.8418 17.5323C7.37433 17.7521 7.94505 17.8647 8.5212 17.8634C9.09734 17.8622 9.66756 17.7471 10.1991 17.5249C10.7307 17.3027 11.2131 16.9776 11.6187 16.5685L11.9285 16.2587C12.7487 15.4383 13.2094 14.3257 13.2094 13.1656C13.2094 12.0055 12.7487 10.8929 11.9285 10.0725L10.6904 8.83433L11.9285 7.59708L11.9276 7.59621ZM17.8059 12.8558L16.5686 11.6186C16.9778 11.213 17.3028 10.7305 17.525 10.199C17.7473 9.66742 17.8623 9.0972 17.8636 8.52105C17.8648 7.94491 17.7523 7.37419 17.5324 6.84166C17.3125 6.30913 16.9896 5.82528 16.5822 5.41788C16.1748 5.01049 15.6909 4.68757 15.1584 4.46767C14.6259 4.24777 14.0552 4.13522 13.479 4.13648C12.9029 4.13775 12.3326 4.25279 11.8011 4.47502C11.2695 4.69725 10.7871 5.02228 10.3815 5.43146L10.0717 5.74121C9.25154 6.56164 8.79079 7.67424 8.79079 8.83433C8.79079 9.99443 9.25154 11.107 10.0717 11.9275L11.3099 13.1656L10.0717 14.4028L8.83448 13.1656C8.26565 12.5968 7.81443 11.9216 7.50658 11.1784C7.19873 10.4353 7.04029 9.63873 7.04029 8.83433C7.04029 8.02994 7.19873 7.23341 7.50658 6.49025C7.81443 5.74709 8.26565 5.07185 8.83448 4.50308L9.14423 4.19421C10.2929 3.04549 11.8509 2.40015 13.4755 2.40015C15.1 2.40015 16.658 3.04549 17.8067 4.19421C18.9554 5.34293 19.6008 6.90093 19.6008 8.52546C19.6008 10.15 18.9554 11.708 17.8067 12.8567L17.8059 12.8558Z" fill="#EA8FE1"/>
</g>
<defs>
<clipPath id="clip0_319_6543">
<rect width="21" height="21" fill="white" transform="translate(0.5 0.5)"/>
</clipPath>
</defs>
</svg>
