<svg width="35" height="35" viewBox="0 0 35 35" fill="none" xmlns="http://www.w3.org/2000/svg">
<g clip-path="url(#clip0_319_6526)">
<path d="M17.5 35C27.165 35 35 27.165 35 17.5C35 7.83502 27.165 0 17.5 0C7.83502 0 0 7.83502 0 17.5C0 27.165 7.83502 35 17.5 35Z" fill="#FF9800"/>
<path d="M17.5022 8.28955C16.5831 8.28955 15.6848 8.56208 14.9206 9.07266C14.1565 9.58325 13.5609 10.309 13.2092 11.158C12.8575 12.0071 12.7655 12.9414 12.9448 13.8428C13.1241 14.7442 13.5666 15.5721 14.2165 16.222C14.8663 16.8719 15.6943 17.3144 16.5956 17.4937C17.497 17.673 18.4313 17.581 19.2804 17.2293C20.1295 16.8776 20.8552 16.282 21.3658 15.5179C21.8764 14.7537 22.1489 13.8553 22.1489 12.9363C22.1492 12.326 22.0292 11.7216 21.7958 11.1577C21.5624 10.5938 21.2201 10.0814 20.7886 9.64987C20.357 9.21832 19.8447 8.87606 19.2808 8.64265C18.7169 8.40923 18.1125 8.28925 17.5022 8.28955ZM17.5022 15.2527C17.044 15.2527 16.5962 15.1169 16.2152 14.8623C15.8343 14.6078 15.5374 14.246 15.3621 13.8227C15.1867 13.3995 15.1409 12.9337 15.2302 12.4844C15.3196 12.035 15.5402 11.6223 15.8642 11.2983C16.1882 10.9743 16.6009 10.7537 17.0503 10.6643C17.4996 10.5749 17.9654 10.6208 18.3886 10.7961C18.8119 10.9715 19.1737 11.2684 19.4282 11.6493C19.6828 12.0303 19.8186 12.4781 19.8186 12.9363C19.8189 13.2406 19.7592 13.5419 19.6429 13.8231C19.5266 14.1043 19.356 14.3598 19.1408 14.5749C18.9257 14.7901 18.6702 14.9607 18.389 15.077C18.1078 15.1933 17.8065 15.253 17.5022 15.2527Z" fill="white"/>
<path d="M24.349 18.2944C24.2479 18.1138 24.1121 17.9548 23.9494 17.8267C23.7868 17.6986 23.6004 17.6038 23.4011 17.5478C23.2018 17.4918 22.9934 17.4756 22.7878 17.5002C22.5822 17.5248 22.3835 17.5897 22.203 17.6911C19.0392 19.4642 15.9629 19.4642 12.799 17.6911C12.6176 17.5898 12.418 17.5253 12.2116 17.5011C12.0052 17.4769 11.7961 17.4937 11.5962 17.5503C11.3963 17.607 11.2095 17.7025 11.0464 17.8313C10.8834 17.9602 10.7474 18.1199 10.6461 18.3013C10.5448 18.4828 10.4802 18.6824 10.456 18.8887C10.4319 19.0951 10.4486 19.3043 10.5053 19.5042C10.6197 19.9079 10.8899 20.2497 11.2563 20.4543C12.2942 21.0433 13.403 21.4976 14.5559 21.8059L12.3178 24.0441C12.0238 24.3382 11.8586 24.737 11.8586 25.1528C11.8586 25.5686 12.0238 25.9675 12.3178 26.2615C12.6118 26.5555 13.0107 26.7207 13.4265 26.7207C13.8423 26.7207 14.2412 26.5555 14.5352 26.2615L17.501 23.2842L20.4668 26.25C20.7609 26.544 21.1597 26.7092 21.5755 26.7092C21.9914 26.7092 22.3902 26.544 22.6842 26.25C22.9783 25.9559 23.1434 25.5571 23.1434 25.1413C23.1434 24.7255 22.9783 24.3266 22.6842 24.0326L20.4461 21.7944C21.599 21.486 22.7078 21.0318 23.7458 20.4428C23.9267 20.3416 24.0859 20.2057 24.2142 20.0429C24.3425 19.88 24.4374 19.6935 24.4935 19.4939C24.5495 19.2943 24.5656 19.0856 24.5408 18.8797C24.5161 18.6739 24.4509 18.475 24.349 18.2944Z" fill="white"/>
</g>
<defs>
<clipPath id="clip0_319_6526">
<rect width="35" height="35" fill="white"/>
</clipPath>
</defs>
</svg>
