<svg width="25" height="24" viewBox="0 0 25 24" fill="none" xmlns="http://www.w3.org/2000/svg">
<path d="M21.0029 14.25H16.503V4.5001H21.0029C21.2018 4.5001 21.3926 4.57911 21.5333 4.71976C21.6739 4.86041 21.7529 5.05118 21.7529 5.25009V13.5C21.7529 13.6989 21.6739 13.8897 21.5333 14.0303C21.3926 14.171 21.2018 14.25 21.0029 14.25V14.25Z" stroke="#262D35" stroke-width="2.4" stroke-linecap="round" stroke-linejoin="round"/>
<path d="M16.5029 14.2498L12.753 21.7498C12.359 21.7498 11.9689 21.6722 11.6049 21.5214C11.241 21.3706 10.9102 21.1497 10.6317 20.8711C10.3531 20.5925 10.1321 20.2618 9.98136 19.8978C9.83059 19.5339 9.753 19.1437 9.753 18.7498V16.4998H3.95223C3.73954 16.4998 3.52928 16.4546 3.33541 16.3671C3.14154 16.2797 2.96848 16.152 2.82772 15.9925C2.68696 15.8331 2.58172 15.6455 2.51899 15.4423C2.45625 15.2391 2.43745 15.0248 2.46383 14.8138L3.58882 5.81386C3.63416 5.45108 3.81044 5.11736 4.08452 4.8754C4.3586 4.63345 4.71162 4.49993 5.07722 4.49993H16.5029" stroke="#262D35" stroke-width="2.4" stroke-linecap="round" stroke-linejoin="round"/>
</svg>
