<svg width="20" height="20" viewBox="0 0 20 20" fill="none" xmlns="http://www.w3.org/2000/svg">
<path d="M7.41835 17C13.9201 17 17.4763 11.6132 17.4763 6.94208C17.4763 6.78912 17.4763 6.63673 17.4659 6.48511C18.1578 5.98468 18.7549 5.36518 19.2295 4.65532C18.5843 4.94114 17.8999 5.12875 17.1991 5.21145C17.9371 4.76961 18.4894 4.07487 18.7532 3.25627C18.0592 3.66806 17.3001 3.95828 16.5085 4.11431C15.1698 2.69075 12.9305 2.62203 11.507 3.96077C10.5888 4.82417 10.1994 6.11065 10.4843 7.33836C7.64234 7.19574 4.99414 5.85336 3.19919 3.64489C2.26093 5.26008 2.74011 7.32649 4.29365 8.36372C3.73101 8.34706 3.18081 8.19525 2.68919 7.9213C2.68919 7.93585 2.68919 7.95097 2.68919 7.9661C2.68957 9.64886 3.87574 11.0981 5.52519 11.4314C5.00486 11.5732 4.45868 11.5941 3.92896 11.4921C4.39205 12.9321 5.71912 13.9186 7.2315 13.9469C5.97967 14.9307 4.4334 15.4646 2.84138 15.4631C2.56016 15.4625 2.27931 15.4455 2 15.412C3.61653 16.4494 5.49762 16.9996 7.41835 16.9971" fill="white"/>
</svg>
