<svg width="35" height="35" viewBox="0 0 35 35" fill="none" xmlns="http://www.w3.org/2000/svg">
<g clip-path="url(#clip0_319_6512)">
<path d="M17.5 35C27.165 35 35 27.165 35 17.5C35 7.83502 27.165 0 17.5 0C7.83502 0 0 7.83502 0 17.5C0 27.165 7.83502 35 17.5 35Z" fill="#4787ED"/>
<path d="M25.2994 22.3218C24.8805 22.3807 22.8317 22.3218 22.7253 22.3218C22.1957 22.3286 21.6847 22.1263 21.3032 21.7589C20.8712 21.3432 20.485 20.885 20.0628 20.4497C19.938 20.3176 19.8028 20.1956 19.6586 20.0848C19.3215 19.8246 18.9877 19.8835 18.829 20.2812C18.7049 20.7109 18.6184 21.1505 18.5704 21.5952C18.5426 21.9978 18.2873 22.2498 17.8357 22.2776C17.5558 22.2923 17.276 22.2972 16.9994 22.2907C15.9916 22.2843 14.9995 22.0392 14.1046 21.5756C13.1363 21.036 12.2926 20.2983 11.6287 19.4106C10.5372 18.0164 9.66499 16.4847 8.88605 14.9055C8.84514 14.827 8.04656 13.1284 8.02692 13.0482C7.95492 12.7798 8.02693 12.5229 8.24784 12.4345C8.38857 12.3805 11.0199 12.4345 11.0641 12.4345C11.2598 12.4328 11.4508 12.4934 11.6097 12.6076C11.7686 12.7217 11.887 12.8835 11.9478 13.0694C12.4342 14.315 13.1002 15.4826 13.9246 16.5354C14.04 16.6762 14.175 16.7996 14.3255 16.902C14.5399 17.0476 14.7428 16.9969 14.8312 16.7498C14.9359 16.4069 14.9975 16.0524 15.0145 15.6943C15.0292 14.9841 15.0145 14.516 14.9752 13.8075C14.949 13.3525 14.7886 12.9533 14.1177 12.8256C13.9115 12.7896 13.8935 12.6194 14.0261 12.4492C14.3026 12.0958 14.6806 12.0401 15.1045 12.0189C15.7361 11.9829 16.3678 12.0074 16.9994 12.0189H17.1369C17.4118 12.0179 17.6861 12.0458 17.9551 12.1023C18.1142 12.1345 18.2586 12.2172 18.3668 12.3381C18.475 12.459 18.5413 12.6116 18.5557 12.7733C18.588 12.9525 18.6017 13.1345 18.5966 13.3165C18.5802 14.0922 18.5426 14.8662 18.5344 15.6419C18.5269 15.949 18.5549 16.256 18.6179 16.5567C18.7079 16.969 18.991 17.0721 19.2724 16.7743C19.6369 16.3893 19.9712 15.9768 20.2723 15.5404C20.8047 14.7452 21.244 13.8914 21.5814 12.9958C21.7647 12.536 21.9087 12.4345 22.3996 12.4345H25.1914C25.3574 12.4316 25.5229 12.4537 25.6823 12.5C25.7387 12.5148 25.7915 12.5411 25.8373 12.5773C25.8831 12.6135 25.9209 12.6587 25.9484 12.7101C25.9759 12.7616 25.9925 12.8182 25.9971 12.8764C26.0017 12.9345 25.9943 12.993 25.9752 13.0482C25.8378 13.6602 25.5072 14.1822 25.157 14.6846C24.5892 15.4897 23.9902 16.2736 23.4093 17.0656C23.3358 17.1706 23.2686 17.2799 23.208 17.3929C22.9888 17.7873 23.0051 18.0082 23.3226 18.3371C23.8299 18.8575 24.3715 19.3468 24.8608 19.8835C25.2201 20.2737 25.5442 20.6948 25.8296 21.1419C26.188 21.6967 25.967 22.2269 25.2994 22.3218Z" fill="white"/>
</g>
<defs>
<clipPath id="clip0_319_6512">
<rect width="35" height="35" fill="white"/>
</clipPath>
</defs>
</svg>
